<svg xmlns="http://www.w3.org/2000/svg" viewBox="0 0 500 500"><g id="freepik--background-complete--inject-3"><rect y="382.4" width="500" height="0.25" style="fill:#ebebeb"></rect><rect x="52.46" y="391.92" width="25.54" height="0.25" style="fill:#ebebeb"></rect><rect x="154.06" y="389.21" width="109.94" height="0.25" style="fill:#ebebeb"></rect><rect x="97.33" y="395.18" width="72.67" height="0.25" style="fill:#ebebeb"></rect><rect x="353.66" y="399.53" width="96.25" height="0.25" style="fill:#ebebeb"></rect><rect x="338.42" y="399.53" width="6.33" height="0.25" style="fill:#ebebeb"></rect><rect x="301.22" y="395.31" width="69.67" height="0.25" style="fill:#ebebeb"></rect><path d="M237,337.8H43.91a5.71,5.71,0,0,1-5.7-5.71V60.66A5.71,5.71,0,0,1,43.91,55H237a5.71,5.71,0,0,1,5.71,5.71V332.09A5.71,5.71,0,0,1,237,337.8ZM43.91,55.2a5.46,5.46,0,0,0-5.45,5.46V332.09a5.46,5.46,0,0,0,5.45,5.46H237a5.47,5.47,0,0,0,5.46-5.46V60.66A5.47,5.47,0,0,0,237,55.2Z" style="fill:#ebebeb"></path><path d="M453.31,337.8H260.21a5.72,5.72,0,0,1-5.71-5.71V60.66A5.72,5.72,0,0,1,260.21,55h193.1A5.71,5.71,0,0,1,459,60.66V332.09A5.71,5.71,0,0,1,453.31,337.8ZM260.21,55.2a5.47,5.47,0,0,0-5.46,5.46V332.09a5.47,5.47,0,0,0,5.46,5.46h193.1a5.47,5.47,0,0,0,5.46-5.46V60.66a5.47,5.47,0,0,0-5.46-5.46Z" style="fill:#ebebeb"></path><rect x="219.89" y="82.78" width="6.67" height="299.62" style="fill:#f0f0f0"></rect><rect x="319.89" y="-5.75" width="6.67" height="200" transform="translate(417.48 -228.97) rotate(90)" style="fill:#f0f0f0"></rect><polygon points="299.89 95.86 295.68 90.92 223.22 175.98 227.43 180.92 299.89 95.86" style="fill:#f0f0f0"></polygon><polygon points="223.22 95.86 227.43 90.92 299.89 175.98 295.68 180.92 223.22 95.86" style="fill:#f0f0f0"></polygon><polygon points="373.22 95.86 369.01 90.92 296.55 175.98 300.76 180.92 373.22 95.86" style="fill:#f0f0f0"></polygon><polygon points="296.55 95.86 300.76 90.92 373.22 175.98 369.01 180.92 296.55 95.86" style="fill:#f0f0f0"></polygon><polygon points="299.89 179.2 295.68 174.25 223.22 259.31 227.43 264.25 299.89 179.2" style="fill:#f0f0f0"></polygon><polygon points="223.22 179.2 227.43 174.25 299.89 259.31 295.68 264.25 223.22 179.2" style="fill:#f0f0f0"></polygon><polygon points="373.22 179.2 369.01 174.25 296.55 259.31 300.76 264.25 373.22 179.2" style="fill:#f0f0f0"></polygon><polygon points="296.55 179.2 300.76 174.25 373.22 259.31 369.01 264.25 296.55 179.2" style="fill:#f0f0f0"></polygon><polygon points="299.89 262.53 295.68 257.59 223.22 342.64 227.43 347.59 299.89 262.53" style="fill:#f0f0f0"></polygon><polygon points="223.22 262.53 227.43 257.59 299.89 342.64 295.68 347.59 223.22 262.53" style="fill:#f0f0f0"></polygon><polygon points="373.22 262.53 369.01 257.59 296.55 342.64 300.76 347.59 373.22 262.53" style="fill:#f0f0f0"></polygon><polygon points="296.55 262.53 300.76 257.59 373.22 342.64 369.01 347.59 296.55 262.53" style="fill:#f0f0f0"></polygon><rect x="319.89" y="77.59" width="6.67" height="200" transform="translate(500.81 -145.63) rotate(90)" style="fill:#f0f0f0"></rect><rect x="319.89" y="160.92" width="6.67" height="200" transform="translate(584.14 -62.3) rotate(90)" style="fill:#f0f0f0"></rect><rect x="319.89" y="244.25" width="6.67" height="200" transform="translate(667.48 21.03) rotate(90)" style="fill:#f0f0f0"></rect><rect x="269.89" y="82.78" width="6.67" height="299.62" style="fill:#f5f5f5"></rect><rect x="369.89" y="82.78" width="6.67" height="299.62" style="fill:#f0f0f0"></rect><rect x="419.89" y="82.78" width="6.67" height="299.62" style="fill:#f5f5f5"></rect><rect x="344.89" y="19.25" width="6.67" height="150" transform="translate(442.48 -253.97) rotate(90)" style="fill:#f5f5f5"></rect><rect x="344.89" y="102.59" width="6.67" height="150" transform="translate(525.81 -170.63) rotate(90)" style="fill:#f5f5f5"></rect><rect x="344.89" y="185.92" width="6.67" height="150" transform="translate(609.14 -87.3) rotate(90)" style="fill:#f5f5f5"></rect><rect x="344.89" y="269.25" width="6.67" height="150" transform="translate(692.48 -3.97) rotate(90)" style="fill:#f5f5f5"></rect><path d="M322.66,228.92H292.74a1.42,1.42,0,0,0-1.39,1.75l5.89,25.8a1.43,1.43,0,0,0,1.4,1.12h18.12a1.43,1.43,0,0,0,1.4-1.12l5.9-25.8A1.43,1.43,0,0,0,322.66,228.92Z" style="fill:#e6e6e6"></path><path d="M362.66,228.92H332.74a1.42,1.42,0,0,0-1.39,1.75l5.89,25.8a1.43,1.43,0,0,0,1.4,1.12h18.12a1.43,1.43,0,0,0,1.4-1.12l5.9-25.8A1.43,1.43,0,0,0,362.66,228.92Z" style="fill:#e6e6e6"></path><path d="M402.66,228.92H372.74a1.42,1.42,0,0,0-1.39,1.75l5.89,25.8a1.43,1.43,0,0,0,1.4,1.12h18.12a1.43,1.43,0,0,0,1.4-1.12l5.9-25.8A1.43,1.43,0,0,0,402.66,228.92Z" style="fill:#e6e6e6"></path><path d="M379,144.42c.54-5.81,12.42-29.25,26.05-35.66-6.95,6.41-15.36,37-15.36,37Z" style="fill:#f5f5f5"></path><path d="M375.41,144.72c-1.25-5.7,3-31.64,14-41.89-4.67,8.22-3.4,39.93-3.4,39.93Z" style="fill:#f5f5f5"></path><path d="M377.42,144.65c2-5.49,1.05-31.76-8.61-43.31,3.6,8.74-1.65,40-1.65,40Z" style="fill:#f5f5f5"></path><path d="M374.81,142.63c.29-4.85-6.52-25.67-16.93-32.68,4.91,6.16,7.95,32.43,7.95,32.43Z" style="fill:#f5f5f5"></path><path d="M370.34,142.23c-.31-3.54-7.49-17.85-15.77-21.79,4.21,3.92,9.26,22.58,9.26,22.58Z" style="fill:#f5f5f5"></path><polygon points="396.33 139.03 355.17 139.03 363.21 174.25 388.29 174.25 396.33 139.03" style="fill:#e6e6e6"></polygon><rect x="352.5" y="134.5" width="46.5" height="5.95" rx="1.69" style="fill:#e6e6e6"></rect><polygon points="336.33 139.03 295.17 139.03 303.21 174.25 328.29 174.25 336.33 139.03" style="fill:#e6e6e6"></polygon><circle cx="301.33" cy="131.11" r="7.33" style="fill:#f5f5f5"></circle><circle cx="329" cy="132.39" r="7.33" style="fill:#f5f5f5"></circle><circle cx="320.11" cy="132.39" r="7.33" style="fill:#f5f5f5"></circle><circle cx="319.14" cy="121.75" r="9.08" style="fill:#f5f5f5"></circle><circle cx="309.62" cy="128.06" r="9.72" transform="translate(0.14 256.44) rotate(-45)" style="fill:#f5f5f5"></circle><rect x="292.5" y="134.5" width="46.5" height="5.95" rx="1.69" style="fill:#e6e6e6"></rect><path d="M306.31,126.89c-4.28,1.68-9.88-2.76-10.76-4.71s1.45-3.41,3-2.56c-1-3,2.66-5.77,4.5-2.86-.27-2.3,1.85-3.71,4.1-2.92C310.39,115,310.74,125.62,306.31,126.89Z" style="fill:#ebebeb"></path><path d="M324.84,126c-1.4-3,1.47-7.16,2.81-7.88s2.5.86,2,2c2-.85,4.22,1.6,2.25,3.06a2,2,0,0,1,2.28,2.77C333.51,128.34,326,129.12,324.84,126Z" style="fill:#ebebeb"></path><polygon points="402.9 291.44 335.32 291.44 348.53 340.92 389.69 340.92 402.9 291.44" style="fill:#e6e6e6"></polygon><rect x="330.94" y="285.07" width="76.33" height="8.36" rx="2.57" style="fill:#e6e6e6"></rect><rect x="69.33" y="111.41" width="109.33" height="203.67" style="fill:#f5f5f5"></rect><rect x="67.67" y="111.41" width="1.67" height="203.67" transform="translate(137 426.48) rotate(180)" style="fill:#ebebeb"></rect><path d="M144.92,296.44a202.78,202.78,0,0,1-22-38.7A252.89,252.89,0,0,1,108.94,216a273.81,273.81,0,0,1-6.81-43.23,210.55,210.55,0,0,1,.9-43.55l.83.1a208.66,208.66,0,0,0,1.94,43.05,268.79,268.79,0,0,0,9.47,41.89,244.37,244.37,0,0,0,16.11,39.47,192.61,192.61,0,0,0,23.18,35.13Z" style="fill:#ebebeb"></path><path d="M130.56,266.38c-12,3.41-26.88,27.9-28.5,34.51,22.57-7.5,32.34-28.43,32.34-28.43Z" style="fill:#ebebeb"></path><path d="M124.26,256.1c-11,1.74-25.87,21.76-27.73,27.42,20.74-4.21,30.82-21.64,30.82-21.64Z" style="fill:#ebebeb"></path><path d="M121,242c-10.92.32-27.06,17.8-29.3,23,20.75-1.48,31.92-17.06,31.92-17.06Z" style="fill:#ebebeb"></path><path d="M115.92,231.15c-9.84-1.11-25.64,12.21-28,16.53a38.88,38.88,0,0,0,30-11Z" style="fill:#ebebeb"></path><path d="M112.89,218.36c-9-.94-23.49,11.45-25.67,15.44a35.83,35.83,0,0,0,27.47-10.32Z" style="fill:#ebebeb"></path><path d="M110,209.78c-8.08-1.8-21.83,7.59-24,10.88a31.22,31.22,0,0,0,25.33-6.18Z" style="fill:#ebebeb"></path><path d="M109.85,199.43c-7.83-2.74-22,4.62-24.46,7.53,15,4.6,25.4-2.82,25.4-2.82Z" style="fill:#ebebeb"></path><path d="M107.93,190.8c-6.83-3.4-20.16,1.26-22.54,3.51,13.17,6,23,.75,23,.75Z" style="fill:#ebebeb"></path><path d="M103.84,180.11c-5.74-2.31-15.32,3.25-16.82,5.51,11,3.93,17.81-1.76,17.81-1.76Z" style="fill:#ebebeb"></path><path d="M103,173.53c-5.1-2.7-14.14,1-15.64,2.78,9.76,4.73,16.33.6,16.33.6Z" style="fill:#ebebeb"></path><path d="M102.45,166.92c-4.91-3.29-14.19-1-15.81.45,9.44,5.87,16.28,2.86,16.28,2.86Z" style="fill:#ebebeb"></path><path d="M102.51,160.81c-4.26-3.54-12.9-2.92-14.48-1.87,8.22,6.43,14.67,4.81,14.67,4.81Z" style="fill:#ebebeb"></path><path d="M101.65,154.51c-3.92-3.22-11.84-2.57-13.29-1.58,7.57,5.84,13.49,4.28,13.49,4.28Z" style="fill:#ebebeb"></path><path d="M102.3,150.29c-3.39-3.28-10.64-3.66-12-3,6.57,6,12,5.35,12,5.35Z" style="fill:#ebebeb"></path><path d="M102.54,145.65c-3.17-3.6-10.39-5-11.81-4.52,6.16,6.63,11.68,6.78,11.68,6.78Z" style="fill:#ebebeb"></path><path d="M102.7,140.44c-2.65-3.56-9.15-5.79-10.48-5.59,5.17,6.61,10.2,7.53,10.2,7.53Z" style="fill:#ebebeb"></path><path d="M102.61,135.14c-2.06-2.78-7.12-4.51-8.16-4.36,4,5.15,7.94,5.86,7.94,5.86Z" style="fill:#ebebeb"></path><path d="M103.44,131.17a10,10,0,0,0-6-3.23c3,3.82,5.89,4.35,5.89,4.35Z" style="fill:#ebebeb"></path><path d="M133.81,267c8.15-11.39,32.58-15.88,38-14.46-16.15,21-35.59,21.59-35.59,21.59Z" style="fill:#ebebeb"></path><path d="M125.08,253c7.39-10.07,29.3-13.76,34.15-12.42-14.62,18.55-32,18.82-32,18.82Z" style="fill:#ebebeb"></path><path d="M121.19,241.61c6.87-10.32,28.11-15.19,32.88-14.15-13.64,19.08-30.61,20.33-30.61,20.33Z" style="fill:#ebebeb"></path><path d="M116.42,229.7c6.09-9.3,25-13.85,29.32-13-12.1,17.2-27.26,18.46-27.26,18.46Z" style="fill:#ebebeb"></path><path d="M112.32,218.55c5.72-8.4,23.23-12.17,27.15-11.27-11.35,15.53-25.32,16.37-25.32,16.37Z" style="fill:#ebebeb"></path><path d="M110.27,208.42c4.73-8,20.11-12.6,23.63-12.06-9.44,14.75-21.8,16.5-21.8,16.5Z" style="fill:#ebebeb"></path><path d="M107.65,198.8c5.09-7.27,20.49-10.33,23.93-9.48-10.09,13.43-22.36,14-22.36,14Z" style="fill:#ebebeb"></path><path d="M106.08,191c3.94-7.19,17.26-11.9,20.34-11.57-7.89,13.36-18.64,15.4-18.64,15.4Z" style="fill:#ebebeb"></path><path d="M105.08,180.72c3.58-5.59,14.25-7.14,16.62-6.25-7.08,10.28-15.57,10-15.57,10Z" style="fill:#ebebeb"></path><path d="M104.13,173.34c2.85-5.5,12.15-8.25,14.28-7.74-5.69,10.16-13.17,11-13.17,11Z" style="fill:#ebebeb"></path><path d="M102.75,167.33c2.83-5.49,11.94-8.47,14-8-5.64,10.16-13,11.17-13,11.17Z" style="fill:#ebebeb"></path><path d="M102.81,160.93c2.33-5.21,10.31-8.8,12.17-8.62-4.67,9.7-11.13,11.34-11.13,11.34Z" style="fill:#ebebeb"></path><path d="M102.41,154.31c2.08-4.83,9.37-8.27,11.07-8.13-4.18,9-10.08,10.62-10.08,10.62Z" style="fill:#ebebeb"></path><path d="M102.29,148.94c1.16-4.87,6.95-9.84,8.43-10.16-2.42,9.16-7.26,12.14-7.26,12.14Z" style="fill:#ebebeb"></path><path d="M102.15,141.33c1.39-4.7,7.34-9.28,8.8-9.52-2.85,8.82-7.76,11.5-7.76,11.5Z" style="fill:#ebebeb"></path><path d="M102.64,135.51c1-3.27,5.22-6.53,6.25-6.72-2.09,6.15-5.54,8.08-5.54,8.08Z" style="fill:#ebebeb"></path><path d="M102.91,131a6.85,6.85,0,0,1,3.81-3.22c-1.44,3.22-3.47,4-3.47,4Z" style="fill:#ebebeb"></path></g><g id="freepik--Shadow--inject-3"><ellipse id="freepik--path--inject-3" cx="250" cy="416.24" rx="193.89" ry="11.32" style="fill:#f5f5f5"></ellipse></g><g id="freepik--Stand--inject-3"><rect x="102.69" y="270.16" width="65.92" height="146.02" rx="2.48" style="fill:#92E3A9"></rect><rect x="102.69" y="270.16" width="65.92" height="146.02" rx="2.48" style="fill:#fff;opacity:0.4"></rect><rect x="97.93" y="263.19" width="237.6" height="6.97" rx="1.03" style="fill:#92E3A9"></rect><rect x="97.93" y="263.19" width="237.6" height="6.97" rx="1.03" style="fill:#fff;opacity:0.2"></rect><rect x="125.2" y="383.01" width="205.58" height="33.17" rx="2.53" style="fill:#92E3A9"></rect><rect x="125.2" y="383.01" width="205.58" height="33.17" rx="2.53" style="fill:#fff;opacity:0.6000000000000001"></rect><rect x="130.7" y="378.57" width="194.57" height="4.45" style="fill:#92E3A9"></rect><rect x="130.7" y="378.57" width="194.57" height="4.45" style="fill:#fff;opacity:0.4"></rect><rect x="125.2" y="345.4" width="205.58" height="33.17" rx="2.53" style="fill:#92E3A9"></rect><rect x="125.2" y="345.4" width="205.58" height="33.17" rx="2.53" style="fill:#fff;opacity:0.6000000000000001"></rect><rect x="130.7" y="340.95" width="194.57" height="4.45" style="fill:#92E3A9"></rect><rect x="130.7" y="340.95" width="194.57" height="4.45" style="fill:#fff;opacity:0.4"></rect><rect x="125.2" y="307.78" width="205.58" height="33.17" rx="2.53" style="fill:#92E3A9"></rect><rect x="125.2" y="307.78" width="205.58" height="33.17" rx="2.53" style="fill:#fff;opacity:0.6000000000000001"></rect><rect x="130.7" y="303.33" width="194.57" height="4.45" style="fill:#92E3A9"></rect><rect x="130.7" y="303.33" width="194.57" height="4.45" style="fill:#fff;opacity:0.4"></rect><rect x="125.2" y="270.16" width="205.58" height="33.17" rx="2.53" style="fill:#92E3A9"></rect><rect x="125.2" y="270.16" width="205.58" height="33.17" rx="2.53" style="fill:#fff;opacity:0.6000000000000001"></rect><path d="M206.18,372.91H167.72l-3.15,42.22a2.85,2.85,0,0,0,2.84,3.05H206.5a2.84,2.84,0,0,0,2.83-3.05Z" style="fill:#92E3A9"></path><path d="M187,355c-10.62,0-19.23,8-19.23,17.87h38.46C206.18,363,197.57,355,187,355Z" style="fill:#92E3A9"></path><path d="M204.25,393.42c3.74,2.85,21.26-12.53,25-24l2.76,2s-13.44,32.63-27.78,38.85C194.78,406.53,200.11,391.32,204.25,393.42Z" style="fill:#92E3A9"></path><path d="M229.51,372.46c3.14,1.93,8.56-1.17,9.37-2.49l-11.36-7C226.71,364.29,226.37,370.52,229.51,372.46Z" style="fill:#92E3A9"></path><path d="M234.16,364.92c3.13,1.94,5.25,4.2,4.72,5.05s-3.49,0-6.63-2-5.25-4.19-4.73-5.05S231,363,234.16,364.92Z" style="fill:#92E3A9"></path><path d="M234.16,364.92c3.13,1.94,5.25,4.2,4.72,5.05s-3.49,0-6.63-2-5.25-4.19-4.73-5.05S231,363,234.16,364.92Z" style="fill:#fff;opacity:0.30000000000000004"></path><path d="M168.6,406.22a1.69,1.69,0,0,1-1.43-.79c-16.78-26.73-15-38.77-12.44-43.56a9.48,9.48,0,0,1,8.24-5.18,13,13,0,0,1,11.19,6.4,1.69,1.69,0,1,1-2.88,1.77,9.6,9.6,0,0,0-8.21-4.79,6,6,0,0,0-5.36,3.39c-1.78,3.34-4.15,14,12.32,40.17a1.7,1.7,0,0,1-.54,2.33A1.73,1.73,0,0,1,168.6,406.22Z" style="fill:#92E3A9"></path><path d="M129.31,220.71c-2.52-6.92-2.11-24.63,1.3-20.22s-4.91,13.62.34,19.91C130.06,222.3,129.31,220.71,129.31,220.71Z" style="fill:#92E3A9"></path><path d="M136.32,216c1.26-5.8,9.15-17.69,9.58-13.21s-9.2,7.16-8.33,13.7C136.15,217.42,136.32,216,136.32,216Z" style="fill:#92E3A9"></path><path d="M137.18,214.09c2.09-2.93,9.35-7.66,8.51-5.06s-6.85,1.78-7.93,5.63C136.74,214.83,137.18,214.09,137.18,214.09Z" style="fill:#92E3A9"></path><path d="M137.18,214.09c2.09-2.93,9.35-7.66,8.51-5.06s-6.85,1.78-7.93,5.63C136.74,214.83,137.18,214.09,137.18,214.09Z" style="fill:#fff;opacity:0.30000000000000004"></path><path d="M150.87,217.58c1-5.84,8.34-18.09,9-13.63S151,211.53,152.14,218C150.77,219,150.87,217.58,150.87,217.58Z" style="fill:#92E3A9"></path><path d="M131.25,226.31c5.13-17.63,2.74-27.43,2.74-27.43C137.18,203,135.33,218.38,131.25,226.31Z" style="fill:#92E3A9"></path><path d="M134.15,203.54c-2.16.23-3.52-3.13-3.91-7.52a14.42,14.42,0,0,0,2,1.32s.12-2.15.28-3.1c.57.5,1.47,1.73,2.3,2.34a7.74,7.74,0,0,0,.47-2.17C137.21,196.4,139.12,202.27,134.15,203.54Z" style="fill:#92E3A9"></path><path d="M134.15,203.54c-2.16.23-3.52-3.13-3.91-7.52a14.42,14.42,0,0,0,2,1.32s.12-2.15.28-3.1c.57.5,1.47,1.73,2.3,2.34a7.74,7.74,0,0,0,.47-2.17C137.21,196.4,139.12,202.27,134.15,203.54Z" style="fill:#fff;opacity:0.30000000000000004"></path><path d="M129.07,218.45c-4.19-20.81-.48-31.87-.48-31.87C124.51,191.05,125.15,208.92,129.07,218.45Z" style="fill:#92E3A9"></path><path d="M128,191.78c2.5,0,3.67-4,3.6-9.11a16.71,16.71,0,0,1-2.11,1.75s-.38-2.45-.68-3.53c-.6.64-1.48,2.16-2.37,3a9,9,0,0,1-.8-2.44C123.64,183.94,122.14,190.92,128,191.78Z" style="fill:#92E3A9"></path><path d="M128,191.78c2.5,0,3.67-4,3.6-9.11a16.71,16.71,0,0,1-2.11,1.75s-.38-2.45-.68-3.53c-.6.64-1.48,2.16-2.37,3a9,9,0,0,1-.8-2.44C123.64,183.94,122.14,190.92,128,191.78Z" style="opacity:0.30000000000000004"></path><path d="M125.43,216.35c-2.65-5.17-13.14-14.43-12.41-10.09s10.52,4.47,11.35,10.87C126,217.64,125.43,216.35,125.43,216.35Z" style="fill:#92E3A9"></path><path d="M125.43,216.35c-2.65-5.17-13.14-14.43-12.41-10.09s10.52,4.47,11.35,10.87C126,217.64,125.43,216.35,125.43,216.35Z" style="opacity:0.30000000000000004"></path><path d="M151.39,215.09c2.25-3.56,10.4-9.59,9.6-6.5s-7.88,2.56-8.88,7.14C150.94,216,151.39,215.09,151.39,215.09Z" style="fill:#92E3A9"></path><path d="M147.33,216.56c3.79-5.3,7.64-20.5,3.69-17.54s.95,12.77-5,16.88C146.32,217.73,147.33,216.56,147.33,216.56Z" style="fill:#92E3A9"></path><path d="M127.06,224.71c-3-18.11-9.45-25.9-9.45-25.9C122.29,201.16,127.29,215.8,127.06,224.71Z" style="fill:#92E3A9"></path><path d="M119.78,202.94c-1.84,1.14-4.53-1.3-6.79-5.08a14.89,14.89,0,0,0,2.35.34s-.83-2-1.1-2.92c.73.2,2.07.93,3.09,1.12a7.66,7.66,0,0,0-.52-2.16C119.44,195.18,123.71,199.64,119.78,202.94Z" style="fill:#92E3A9"></path><path d="M119.78,202.94c-1.84,1.14-4.53-1.3-6.79-5.08a14.89,14.89,0,0,0,2.35.34s-.83-2-1.1-2.92c.73.2,2.07.93,3.09,1.12a7.66,7.66,0,0,0-.52-2.16C119.44,195.18,123.71,199.64,119.78,202.94Z" style="fill:#fff;opacity:0.30000000000000004"></path><path d="M131.33,220.06C122.11,201,123,189.31,123,189.31,120.12,194.65,125.17,211.8,131.33,220.06Z" style="fill:#92E3A9"></path><path d="M123.69,194.49c2.43-.61,2.56-4.81,1.23-9.72a16.58,16.58,0,0,1-1.61,2.22s-1-2.28-1.53-3.25c-.42.76-.91,2.46-1.56,3.46a8.77,8.77,0,0,1-1.38-2.16C117.51,188,117.79,195.11,123.69,194.49Z" style="fill:#92E3A9"></path><path d="M123.69,194.49c2.43-.61,2.56-4.81,1.23-9.72a16.58,16.58,0,0,1-1.61,2.22s-1-2.28-1.53-3.25c-.42.76-.91,2.46-1.56,3.46a8.77,8.77,0,0,1-1.38-2.16C117.51,188,117.79,195.11,123.69,194.49Z" style="opacity:0.30000000000000004"></path><path d="M133.77,219.64c7.54-16.74,6.53-26.79,6.53-26.79C142.89,197.41,138.91,212.35,133.77,219.64Z" style="fill:#92E3A9"></path><path d="M139.81,197.49c-2.17-.07-3.05-3.59-2.83-8a14.27,14.27,0,0,0,1.77,1.58s.41-2.11.7-3c.5.57,1.21,1.92,2,2.64a7.46,7.46,0,0,0,.77-2.08C143.83,190.85,144.91,196.93,139.81,197.49Z" style="fill:#92E3A9"></path><path d="M139.81,197.49c-2.17-.07-3.05-3.59-2.83-8a14.27,14.27,0,0,0,1.77,1.58s.41-2.11.7-3c.5.57,1.21,1.92,2,2.64a7.46,7.46,0,0,0,.77-2.08C143.83,190.85,144.91,196.93,139.81,197.49Z" style="opacity:0.30000000000000004"></path><path d="M145.53,216.51c4.19-20.81.48-31.87.48-31.87C150.09,189.11,149.45,207,145.53,216.51Z" style="fill:#92E3A9"></path><path d="M146.6,189.84c-2.51,0-3.68-4-3.61-9.11a17.57,17.57,0,0,0,2.11,1.75s.38-2.46.68-3.54c.6.64,1.49,2.17,2.37,3a9,9,0,0,0,.8-2.44C151,182,152.47,189,146.6,189.84Z" style="fill:#92E3A9"></path><path d="M146.6,189.84c-2.51,0-3.68-4-3.61-9.11a17.57,17.57,0,0,0,2.11,1.75s.38-2.46.68-3.54c.6.64,1.49,2.17,2.37,3a9,9,0,0,0,.8-2.44C151,182,152.47,189,146.6,189.84Z" style="fill:#fff;opacity:0.30000000000000004"></path><path d="M150.48,223.63c3-18.11,9.45-25.9,9.45-25.9C155.25,200.08,150.26,214.71,150.48,223.63Z" style="fill:#92E3A9"></path><path d="M157.77,201.85c1.83,1.15,4.52-1.29,6.78-5.07a14.85,14.85,0,0,1-2.34.34s.83-2,1.1-2.92c-.73.2-2.08.92-3.1,1.12a7.93,7.93,0,0,1,.52-2.16C158.1,194.1,153.83,198.56,157.77,201.85Z" style="fill:#92E3A9"></path><path d="M157.77,201.85c1.83,1.15,4.52-1.29,6.78-5.07a14.85,14.85,0,0,1-2.34.34s.83-2,1.1-2.92c-.73.2-2.08.92-3.1,1.12a7.93,7.93,0,0,1,.52-2.16C158.1,194.1,153.83,198.56,157.77,201.85Z" style="fill:#fff;opacity:0.30000000000000004"></path><path d="M146.22,219c9.21-19.12,8.35-30.75,8.35-30.75C157.42,193.57,152.37,210.72,146.22,219Z" style="fill:#92E3A9"></path><path d="M153.85,193.41c-2.42-.61-2.55-4.81-1.22-9.72a16.06,16.06,0,0,0,1.6,2.22s1-2.28,1.54-3.26c.42.77.9,2.47,1.56,3.47A8.86,8.86,0,0,0,158.7,184C160,186.9,159.76,194,153.85,193.41Z" style="fill:#92E3A9"></path><path d="M153.85,193.41c-2.42-.61-2.55-4.81-1.22-9.72a16.06,16.06,0,0,0,1.6,2.22s1-2.28,1.54-3.26c.42.77.9,2.47,1.56,3.47A8.86,8.86,0,0,0,158.7,184C160,186.9,159.76,194,153.85,193.41Z" style="opacity:0.30000000000000004"></path><path d="M158.5,213.66H117.76a1.65,1.65,0,0,0-1.64,1.74l2.68,46.25a1.64,1.64,0,0,0,1.64,1.54h35.38a1.64,1.64,0,0,0,1.64-1.54l2.68-46.25A1.65,1.65,0,0,0,158.5,213.66Z" style="fill:#92E3A9"></path><path d="M158.5,213.66H117.76a1.65,1.65,0,0,0-1.64,1.74l2.68,46.25a1.64,1.64,0,0,0,1.64,1.54h35.38a1.64,1.64,0,0,0,1.64-1.54l2.68-46.25A1.65,1.65,0,0,0,158.5,213.66Z" style="fill:#fff;opacity:0.6000000000000001"></path><path d="M149.77,233.27c-9.7,0-22.88-5.19-31.05-13.23a.65.65,0,0,1,0-.93.66.66,0,0,1,.93,0c11.45,11.26,31.26,15.66,38.26,10.87,2.95-2,3.42-5.43,1.39-10.14a.65.65,0,0,1,.34-.86.66.66,0,0,1,.87.34c2.88,6.68.58,10.08-1.86,11.74C156.43,232.57,153.34,233.27,149.77,233.27Z" style="fill:#92E3A9"></path><path d="M149.82,234.52a35.25,35.25,0,0,1-6.18-.57,2,2,0,1,1,.68-3.9c5.15.91,9.61.61,12.24-.81a2,2,0,0,1,1.88,3.48A18.25,18.25,0,0,1,149.82,234.52Z" style="fill:#92E3A9"></path><path d="M209.34,197.82c4.48-6.34-6.52-21.44-17.18-26.19C200.1,182.83,199.29,195,209.34,197.82Z" style="fill:#92E3A9"></path><path d="M215.52,197.8c-3-5.61,7.41-16.86,16.58-19.7C224.53,186.47,224,196.51,215.52,197.8Z" style="fill:#92E3A9"></path><path d="M210.83,199c-4.36-5.77,5.43-20.15,15.21-24.9C219,184.77,220.1,196.11,210.83,199Z" style="fill:#92E3A9"></path><path d="M210.85,194.19l-1-.06c.57-10.25-3.93-25.77-9.08-31.34l.71-.67C206.91,168,211.44,183.54,210.85,194.19Z" style="fill:#92E3A9"></path><path d="M206.3,161.17a4.36,4.36,0,0,0,.19-4c-1-2.94-2.7-.36-3.88,2.08.57-2.32.41-4.91-2.69-4.87-2.16,0-1.85,2-1,4-1.15-1-2.6-1.11-4.05,1.51-1.54,2.8,1,3.12,3.19,3-1.83.76-3.51,2.46-2.06,5.77,1.18,2.69,2.63.21,3.62-2.27-.34,2.26.08,4.6,3.06,4.27,2.61-.29,1.44-3.06.15-5.18,1.47,1.36,3.46,1.94,4.78-1.71C208.3,161.77,207.52,161.17,206.3,161.17Z" style="fill:#92E3A9"></path><path d="M206.3,161.17a4.36,4.36,0,0,0,.19-4c-1-2.94-2.7-.36-3.88,2.08.57-2.32.41-4.91-2.69-4.87-2.16,0-1.85,2-1,4-1.15-1-2.6-1.11-4.05,1.51-1.54,2.8,1,3.12,3.19,3-1.83.76-3.51,2.46-2.06,5.77,1.18,2.69,2.63.21,3.62-2.27-.34,2.26.08,4.6,3.06,4.27,2.61-.29,1.44-3.06.15-5.18,1.47,1.36,3.46,1.94,4.78-1.71C208.3,161.77,207.52,161.17,206.3,161.17Z" style="opacity:0.2"></path><path d="M202.23,162.16a1.73,1.73,0,0,1-.95,1.91c-.67.23-1.31-.24-1.45-1.06a1.72,1.72,0,0,1,1-1.91A1.13,1.13,0,0,1,202.23,162.16Z" style="fill:#92E3A9"></path><path d="M202.23,162.16a1.73,1.73,0,0,1-.95,1.91c-.67.23-1.31-.24-1.45-1.06a1.72,1.72,0,0,1,1-1.91A1.13,1.13,0,0,1,202.23,162.16Z" style="fill:#fff;opacity:0.7000000000000001"></path><path d="M210.14,201.71l-1-.05c.44-9.71,3.54-30.38,9-36.49l.73.65C213.6,171.75,210.58,192.12,210.14,201.71Z" style="fill:#92E3A9"></path><path d="M212.47,164.87c-.81-.8-1.23-2-.79-3.94.71-3.05,3-.71,4.73,1.57-1-2.23-1.16-4.82,2.38-5.18,2.48-.25,2.41,1.79,1.75,3.85,1.17-1.14,2.81-1.44,4.84,1,2.16,2.58-.69,3.22-3.23,3.33,2.2.52,4.37,2,3.18,5.45-1,2.82-3,.54-4.46-1.79.71,2.2.57,4.57-2.88,4.62-3,0-2.09-2.85-.92-5.11-1.48,1.52-3.67,2.35-5.71-1.1C210.27,165.71,211.08,165,212.47,164.87Z" style="fill:#92E3A9"></path><path d="M212.47,164.87c-.81-.8-1.23-2-.79-3.94.71-3.05,3-.71,4.73,1.57-1-2.23-1.16-4.82,2.38-5.18,2.48-.25,2.41,1.79,1.75,3.85,1.17-1.14,2.81-1.44,4.84,1,2.16,2.58-.69,3.22-3.23,3.33,2.2.52,4.37,2,3.18,5.45-1,2.82-3,.54-4.46-1.79.71,2.2.57,4.57-2.88,4.62-3,0-2.09-2.85-.92-5.11-1.48,1.52-3.67,2.35-5.71-1.1C210.27,165.71,211.08,165,212.47,164.87Z" style="fill:#fff;opacity:0.7000000000000001"></path><path d="M217.27,165.34a1.75,1.75,0,0,0,1.36,1.77,1.25,1.25,0,0,0,1.5-1.24,1.75,1.75,0,0,0-1.36-1.77A1.26,1.26,0,0,0,217.27,165.34Z" style="fill:#92E3A9"></path><path d="M217.27,165.34a1.75,1.75,0,0,0,1.36,1.77,1.25,1.25,0,0,0,1.5-1.24,1.75,1.75,0,0,0-1.36-1.77A1.26,1.26,0,0,0,217.27,165.34Z" style="opacity:0.2"></path><path d="M218.44,196.44H206.26a2.05,2.05,0,0,0-2,1.44c-1,3.16-3.13,11.47-3.13,24.56,0,14.38,3.75,33.47,4.93,39.11a2.06,2.06,0,0,0,2,1.64h8.48a2.06,2.06,0,0,0,2-1.64c1.18-5.64,4.93-24.73,4.93-39.11,0-13.09-2.13-21.4-3.13-24.56A2.06,2.06,0,0,0,218.44,196.44Z" style="fill:#92E3A9"></path><path d="M218.44,196.44H206.26a2.05,2.05,0,0,0-2,1.44c-1,3.16-3.13,11.47-3.13,24.56,0,14.38,3.75,33.47,4.93,39.11a2.06,2.06,0,0,0,2,1.64h8.48a2.06,2.06,0,0,0,2-1.64c1.18-5.64,4.93-24.73,4.93-39.11,0-13.09-2.13-21.4-3.13-24.56A2.06,2.06,0,0,0,218.44,196.44Z" style="fill:#fff;opacity:0.8"></path><path d="M192,199.8h-9.33c0,17.37-12.71,27-11.58,41.54s10,21.85,10,21.85h12.55s8.85-7.31,10-21.85S192,217.17,192,199.8Z" style="fill:#92E3A9"></path><path d="M201.44,243.32H172.81a.55.55,0,0,1-.55-.56h0a.55.55,0,0,1,.55-.55h28.63a.56.56,0,0,1,.56.55h0A.56.56,0,0,1,201.44,243.32Z" style="opacity:0.2"></path><rect x="181.47" y="197.77" width="11.82" height="4.05" rx="1.1" style="fill:#263238"></rect><path d="M182.62,198.89c1.76-6,0-6.67,0-6.67l9,2.92s-1.75,2.79-.31,4.66A32.48,32.48,0,0,1,182.62,198.89Z" style="fill:#263238"></path><path d="M178.41,191.14c.38,2.05-.66,5.86-1.7,8.7a.57.57,0,0,0,1,.55c1.94-2.53,3.34-5.44,3.47-7.29C179.78,192.14,178.41,191.14,178.41,191.14Z" style="fill:#263238"></path><rect x="174.76" y="186" width="20.18" height="8.72" rx="2.63" transform="translate(53.73 -40.32) rotate(14.54)" style="fill:#92E3A9"></rect><rect x="174.76" y="186" width="20.18" height="8.72" rx="2.63" transform="translate(53.73 -40.32) rotate(14.54)" style="fill:#fff;opacity:0.30000000000000004"></rect><rect x="175.79" y="185.15" width="4.21" height="6.81" rx="1.38" transform="translate(53.06 -38.64) rotate(14.55)" style="fill:#92E3A9;opacity:0.6000000000000001"></rect><path d="M299.66,234.53l-.24-.64.38,0C299.76,234.09,299.71,234.31,299.66,234.53Z" style="fill:#92E3A9"></path><path d="M299.66,234.53l-.24-.64.38,0C299.76,234.09,299.71,234.31,299.66,234.53Z" style="fill:#fff;opacity:0.4"></path><path d="M332.28,215a52.35,52.35,0,0,0-8,13.41A94.68,94.68,0,0,1,329,210.72a58.63,58.63,0,0,0-8.47,18.59,104.69,104.69,0,0,1,.75-18.16,43.89,43.89,0,0,0-2,6c.94-5.13,1.95-8.77,1.95-8.77a68.1,68.1,0,0,0-7,22.6,112,112,0,0,1,3.56-22.6,68.66,68.66,0,0,0-6.65,20.12A129,129,0,0,1,313.88,205a76.63,76.63,0,0,0-5.3,16.32,78.08,78.08,0,0,0-2.38-15.67s.86,16-1.72,30a71.52,71.52,0,0,0-1.93-26.07,133.72,133.72,0,0,1-1,23.44A54.93,54.93,0,0,0,297.78,208a101,101,0,0,1,.46,21.81,89,89,0,0,1-1.53-16.84,30,30,0,0,0-.73,2.94,48.93,48.93,0,0,0-4,16,102.3,102.3,0,0,1,.57-20.67,54.18,54.18,0,0,0-3.89,16.95,138.12,138.12,0,0,1-.47-19.33,71.34,71.34,0,0,0-1.51,29c-3.09-14.51-2.14-32.12-2.14-32.12a79,79,0,0,0-2.38,15.67,76,76,0,0,0-5.3-16.32,129,129,0,0,1,2.77,23.45A68.32,68.32,0,0,0,273,208.37a112,112,0,0,1,3.56,22.6,68.22,68.22,0,0,0-7-22.6,119,119,0,0,1,2.59,12.56,50,50,0,0,0-3.46-9.84,104.58,104.58,0,0,1,1.65,18.11,57.94,57.94,0,0,0-6.2-13.6c0-1.51.09-2.42.09-2.42s-.22.63-.52,1.74C262.14,212.43,261,211,261,211s.68,1.53,1.6,4A46.57,46.57,0,0,0,259,225.8a53.69,53.69,0,0,0-3.68-14.65,99.93,99.93,0,0,1,.32,23,130.82,130.82,0,0,1-1.26-25.38,70.76,70.76,0,0,0-2.28,21.62,156.57,156.57,0,0,1-.9-24.7,82.61,82.61,0,0,0-2.51,22.44,74,74,0,0,0-2.18-11.19c.24-5.67.81-9.85.81-9.85a57.15,57.15,0,0,0-1.89,6.23,67.26,67.26,0,0,0-3.07-7.9s1.23,5.46,2.05,12.61c-.34,1.91-.63,4-.82,6.21a58.8,58.8,0,0,0-6.93-13.52,92.91,92.91,0,0,1,4.95,19.33,53.28,53.28,0,0,0-8.5-16.21s6.48,14.26,6.05,24.72l2.7-.13c0,.06,0,.11,0,.16h2.64l-.06.42,4.43.49a51.69,51.69,0,0,0,.22-5.25,70.44,70.44,0,0,0,1.25,8l4.06-.17c-.1-.34-.19-.68-.28-1h.22v0l.53,0h2.32s0-.06,0-.09l1.34-.05s0-.07,0-.11l3.74.36c-2.35-10.21-.07-23.54.39-26,.21.54.41,1.1.63,1.71-1.14,4.85-2.49,13.88.22,22.54l3.84-1c-2.44-5.79-3.06-13.56-3.16-18.93,1.82,5.59,3.69,13,3.39,19.2l2.13-.09c-.14.83-.29,1.65-.48,2.46l4.16-.35c.11-.77.19-1.53.26-2.28l3.23.17v-.18l2.12.11a1.25,1.25,0,0,1,0,.19l4.16.45q.26,1.54.6,3.12l4.06-.17c-.1-.34-.19-.68-.28-1l3.52,0,0-.08,2.6.12c0-.06,0-.12,0-.17l2.54.24a53.06,53.06,0,0,1-1-13.36,43.07,43.07,0,0,0,2.11,11.52l3.3-.17q-.33,1.42-.72,2.79l3.29,0a1,1,0,0,0,0,.14l4.06.17q.33-1.58.6-3.12l4.15-.45,0-.19,2.12-.11a1.09,1.09,0,0,0,0,.18l3.76-.2c.11.84.25,1.68.41,2.53l4.17.18c-.22-.8-.42-1.61-.59-2.44h2.13c0-.07,0-.13,0-.2l1.81.14C325.55,228.46,332.28,215,332.28,215Z" style="fill:#92E3A9"></path><path d="M332.28,215a52.35,52.35,0,0,0-8,13.41A94.68,94.68,0,0,1,329,210.72a58.63,58.63,0,0,0-8.47,18.59,104.69,104.69,0,0,1,.75-18.16,43.89,43.89,0,0,0-2,6c.94-5.13,1.95-8.77,1.95-8.77a68.1,68.1,0,0,0-7,22.6,112,112,0,0,1,3.56-22.6,68.66,68.66,0,0,0-6.65,20.12A129,129,0,0,1,313.88,205a76.63,76.63,0,0,0-5.3,16.32,78.08,78.08,0,0,0-2.38-15.67s.86,16-1.72,30a71.52,71.52,0,0,0-1.93-26.07,133.72,133.72,0,0,1-1,23.44A54.93,54.93,0,0,0,297.78,208a101,101,0,0,1,.46,21.81,89,89,0,0,1-1.53-16.84,30,30,0,0,0-.73,2.94,48.93,48.93,0,0,0-4,16,102.3,102.3,0,0,1,.57-20.67,54.18,54.18,0,0,0-3.89,16.95,138.12,138.12,0,0,1-.47-19.33,71.34,71.34,0,0,0-1.51,29c-3.09-14.51-2.14-32.12-2.14-32.12a79,79,0,0,0-2.38,15.67,76,76,0,0,0-5.3-16.32,129,129,0,0,1,2.77,23.45A68.32,68.32,0,0,0,273,208.37a112,112,0,0,1,3.56,22.6,68.22,68.22,0,0,0-7-22.6,119,119,0,0,1,2.59,12.56,50,50,0,0,0-3.46-9.84,104.58,104.58,0,0,1,1.65,18.11,57.94,57.94,0,0,0-6.2-13.6c0-1.51.09-2.42.09-2.42s-.22.63-.52,1.74C262.14,212.43,261,211,261,211s.68,1.53,1.6,4A46.57,46.57,0,0,0,259,225.8a53.69,53.69,0,0,0-3.68-14.65,99.93,99.93,0,0,1,.32,23,130.82,130.82,0,0,1-1.26-25.38,70.76,70.76,0,0,0-2.28,21.62,156.57,156.57,0,0,1-.9-24.7,82.61,82.61,0,0,0-2.51,22.44,74,74,0,0,0-2.18-11.19c.24-5.67.81-9.85.81-9.85a57.15,57.15,0,0,0-1.89,6.23,67.26,67.26,0,0,0-3.07-7.9s1.23,5.46,2.05,12.61c-.34,1.91-.63,4-.82,6.21a58.8,58.8,0,0,0-6.93-13.52,92.91,92.91,0,0,1,4.95,19.33,53.28,53.28,0,0,0-8.5-16.21s6.48,14.26,6.05,24.72l2.7-.13c0,.06,0,.11,0,.16h2.64l-.06.42,4.43.49a51.69,51.69,0,0,0,.22-5.25,70.44,70.44,0,0,0,1.25,8l4.06-.17c-.1-.34-.19-.68-.28-1h.22v0l.53,0h2.32s0-.06,0-.09l1.34-.05s0-.07,0-.11l3.74.36c-2.35-10.21-.07-23.54.39-26,.21.54.41,1.1.63,1.71-1.14,4.85-2.49,13.88.22,22.54l3.84-1c-2.44-5.79-3.06-13.56-3.16-18.93,1.82,5.59,3.69,13,3.39,19.2l2.13-.09c-.14.83-.29,1.65-.48,2.46l4.16-.35c.11-.77.19-1.53.26-2.28l3.23.17v-.18l2.12.11a1.25,1.25,0,0,1,0,.19l4.16.45q.26,1.54.6,3.12l4.06-.17c-.1-.34-.19-.68-.28-1l3.52,0,0-.08,2.6.12c0-.06,0-.12,0-.17l2.54.24a53.06,53.06,0,0,1-1-13.36,43.07,43.07,0,0,0,2.11,11.52l3.3-.17q-.33,1.42-.72,2.79l3.29,0a1,1,0,0,0,0,.14l4.06.17q.33-1.58.6-3.12l4.15-.45,0-.19,2.12-.11a1.09,1.09,0,0,0,0,.18l3.76-.2c.11.84.25,1.68.41,2.53l4.17.18c-.22-.8-.42-1.61-.59-2.44h2.13c0-.07,0-.13,0-.2l1.81.14C325.55,228.46,332.28,215,332.28,215Z" style="fill:#fff;opacity:0.4"></path><polygon points="328.43 241.62 234.88 241.62 232.53 234.12 330.78 234.12 328.43 241.62" style="fill:#92E3A9"></polygon><polygon points="250.98 241.62 234.88 241.62 232.53 234.12 253.33 234.12 250.98 241.62" style="opacity:0.1"></polygon><rect x="236.78" y="241.62" width="89.74" height="21.57" style="fill:#92E3A9"></rect><polygon points="236.78 241.62 236.78 263.19 248.6 263.19 248.6 247.83 326.53 243.26 326.53 241.62 236.78 241.62" style="opacity:0.2"></polygon></g><g id="freepik--Character--inject-3"><path d="M363.27,101c2-1.8.8-4.17-.73-4.13s-4,1.41-3.84,3.16A5,5,0,0,0,363.27,101Z" style="fill:#92E3A9"></path><path d="M361.39,100.34c10.81-2.18,17.67,13.5,12,19.46,11,6,10,22.34-1.67,25.26.8,2.32,0,15.5-19.22,13.83s-14.17-17.43-14.17-17.43-11.34,2.67-14.15-6.21,7.38-16,7.38-16c-2.55-1.8-4.42-11,2.2-19C339.87,92.93,356,91.16,361.39,100.34Z" style="fill:#263238"></path><path d="M337.55,211.77h0c-6.57-.43-17.7-6.56-19.38-11.71a3.7,3.7,0,0,1,1.24-4.24,5.71,5.71,0,0,1,5.34-1.06c4.91,1.34,10.26,7.9,13.3,16.34a.5.5,0,0,1-.47.67Zm-14.61-16.25a4.48,4.48,0,0,0-2.92,1.07,2.68,2.68,0,0,0-.93,3.16c1.49,4.55,11.47,10.14,17.71,10.95-3-7.79-7.87-13.76-12.35-15A5.78,5.78,0,0,0,322.94,195.52Z" style="fill:#92E3A9"></path><path d="M329.94,212.84c-6.09,0-12.86-1.51-15.1-4.31a3.26,3.26,0,0,1-.13-4.09,6.36,6.36,0,0,1,5-2.79c5.22-.5,12.37,3.14,18.23,9.28a.49.49,0,0,1-.19.81A23.87,23.87,0,0,1,329.94,212.84Zm-9.26-10.23a8.77,8.77,0,0,0-.9,0,5.39,5.39,0,0,0-4.23,2.33,2.29,2.29,0,0,0,.07,2.93c2.72,3.4,14.5,5.08,21,3.14C331.43,205.82,325.35,202.61,320.68,202.61Z" style="fill:#92E3A9"></path><path d="M377.42,159.8c1.44,2.56,3,5.32,4.52,7.95s3.12,5.27,4.71,7.83,3.27,5,5,7.28c.84,1.13,1.72,2.16,2.54,3.07a15.26,15.26,0,0,0,2,1.89l-5.32-.33a2.08,2.08,0,0,0-.47.26.75.75,0,0,0-.09.09h0s.19-.06.37-.16a10,10,0,0,0,1.31-1c.95-.85,2-1.84,3-2.89s2.09-2.14,3.17-3.23,2.16-2.23,3.28-3.27l.12-.12a3.77,3.77,0,0,1,6.2,3.79,43.72,43.72,0,0,1-1.64,4.72c-.62,1.54-1.31,3.05-2.09,4.56a39.35,39.35,0,0,1-2.72,4.53,25.44,25.44,0,0,1-1.92,2.39A13,13,0,0,1,398,198.5l-.46.35c-.17.13-.39.26-.59.39a10.26,10.26,0,0,1-1.53.78,6,6,0,0,1-5-.17l-.33-.16a24.43,24.43,0,0,1-5.52-3.91,47.53,47.53,0,0,1-3.85-4,90,90,0,0,1-6.25-8.13c-1.92-2.74-3.67-5.54-5.37-8.36s-3.25-5.64-4.78-8.69a7.39,7.39,0,0,1,13-6.93Z" style="fill:#7f3e3b"></path><path d="M374.64,154.79c5.25,3,11.4,13.29,11.4,13.29S383.22,180,374.47,184.8c-5.62-1.31-6.35-4.33-6.35-4.33Z" style="fill:#92E3A9"></path><path d="M374.64,154.79c5.25,3,11.4,13.29,11.4,13.29S383.22,180,374.47,184.8c-5.62-1.31-6.35-4.33-6.35-4.33Z" style="fill:#fff;opacity:0.6000000000000001"></path><path d="M374.41,417.17c-6.67-2.2-16.85-4-15.29-14.63.5-3.4-10.4-4.73-10.4-4.73,1.24,10.79-.3,13.13-1.24,15.77-1.18,3.32-1.88,8.05.86,8.05s3.79-.54,7.17-.51c3.95,0,10.07.51,17.91.51C377.71,421.63,376.56,417.88,374.41,417.17Z" style="fill:#263238"></path><path d="M362,406.82a5.43,5.43,0,0,1-3.74-1.57.43.43,0,0,1-.11-.28.42.42,0,0,1,.14-.28,5.48,5.48,0,0,1,5.73-.86c.75.36,1.16.86,1.14,1.39,0,.36-.24.87-1.23,1.24A5.44,5.44,0,0,1,362,406.82ZM359.14,405a4.49,4.49,0,0,0,4.51.71c.52-.2.71-.41.71-.54s-.21-.4-.69-.63A4.77,4.77,0,0,0,359.14,405Z" style="fill:#263238"></path><path d="M362.5,409.88a2.73,2.73,0,0,1-.93-.2,5.37,5.37,0,0,1-3.43-4.69.41.41,0,0,1,.4-.4h0a5.46,5.46,0,0,1,4.84,3.19,1.62,1.62,0,0,1-.07,1.79A1.09,1.09,0,0,1,362.5,409.88ZM359,405.4a4.44,4.44,0,0,0,2.88,3.54c.51.2.8.17.88.08s.12-.44-.09-.93A4.76,4.76,0,0,0,359,405.4Z" style="fill:#263238"></path><path d="M342.22,302c-6.34-53.67-4.39-83.48-4.39-83.48l40-2.14s-.78,49.78-7.47,87.09c-.78,19.73-3.66,53.26-5.72,75.78a96,96,0,0,1-19.43-1.63C341.62,358.36,338.44,330.33,342.22,302Z" style="fill:#263238"></path><path d="M349.16,403.11s-1.56-10.21-2.61-25.65c4.55,1.73,11.15-2.37,17.07-1.67-2.28,13.49-4.58,27.36-4.58,27.36C357.06,404.12,352,404.46,349.16,403.11Z" style="fill:#7f3e3b"></path><path d="M365.91,374.17c-.2,1.88-.76,6.59-1.58,8.3a.75.75,0,0,1-.5.4c-7.35,1.57-14.9.71-18.08-.37a.66.66,0,0,1-.4-.35c-1-2.15-1.73-6.82-2-8.78a.71.71,0,0,1,.78-.8,178.5,178.5,0,0,0,21.05.82A.72.72,0,0,1,365.91,374.17Z" style="fill:#e0e0e0"></path><path d="M339.15,270.25c3.32-11.34,7.18-20.8,8.16-29.17,5.44,21.93,5.1,42.65-5.35,58.55C340.7,288.82,339.8,279,339.15,270.25Z" style="opacity:0.2"></path><path d="M287.23,361.85l17,9.64c11.21-18.22,28-46,31.5-57.73,9-29.72,26.49-95,26.49-95l-31.91-4S312.58,235.08,307,305.28C298,321.43,291.31,344.56,287.23,361.85Z" style="fill:#263238"></path><path d="M293.65,415.26c-4.75-7.32-5.69-15.84-2.11-23,1.53-3.06-8.38-7.76-8.38-7.76-2.23,10.62-4.85,11.5-7,13.33s-2,5.29.05,6.26c2.46,1.15,3.44,2,5.77,4.43,2.71,2.87,4.5,7.09,8.21,9.42C292.59,419.43,295.74,418.46,293.65,415.26Z" style="fill:#263238"></path><path d="M293.9,399a5.38,5.38,0,0,1-4.57-2.64.42.42,0,0,1,0-.31.41.41,0,0,1,.2-.23,5.47,5.47,0,0,1,5.76.63,1.63,1.63,0,0,1,.76,1.63c-.11.34-.46.78-1.51.88A4.26,4.26,0,0,1,293.9,399Zm-3.64-2.65a4.46,4.46,0,0,0,4.17,1.83c.56-.06.79-.22.83-.34s-.1-.44-.51-.79A4.78,4.78,0,0,0,290.26,396.38Z" style="fill:#263238"></path><path d="M292.61,402a2.1,2.1,0,0,1-1.19-.48,5.33,5.33,0,0,1-2.12-5.4.38.38,0,0,1,.18-.25.39.39,0,0,1,.3,0,5.5,5.5,0,0,1,3.88,4.31,1.65,1.65,0,0,1-.53,1.72A1,1,0,0,1,292.61,402ZM290,396.72a4.44,4.44,0,0,0,1.88,4.15c.45.32.74.37.84.3s.23-.4.15-.92A4.77,4.77,0,0,0,290,396.72Z" style="fill:#263238"></path><path d="M281.91,389.39s1.75-9.91,5.63-24.89A72.16,72.16,0,0,0,302,373.12c-6.42,12.07-11.13,20.76-11.13,20.76A18.46,18.46,0,0,1,281.91,389.39Z" style="fill:#7f3e3b"></path><path d="M307.36,368.11c-.93,1.65-3.31,5.75-4.74,7a.69.69,0,0,1-.62.16c-7.36-1.46-14-5.24-16.45-7.49a.65.65,0,0,1-.23-.48c-.09-2.38,1.1-6.95,1.64-8.86a.71.71,0,0,1,1-.42,179.61,179.61,0,0,0,19,9.09A.72.72,0,0,1,307.36,368.11Z" style="fill:#e0e0e0"></path><path d="M381.34,168c-.47,9.42,5.81,16.05-2.25,21.21,2.14,6.91,1.5,21.23-1.29,27.17-4.45,3-26.68,4-47.45-1.56-.56-8.11,4.44-24.69-.15-51a10.42,10.42,0,0,1,9.55-12.18c1.65-.11,3.4-.19,5.18-.21a131.29,131.29,0,0,1,18.69.61c2,.25,4.08.58,6.07.92A14.29,14.29,0,0,1,381.34,168Z" style="fill:#92E3A9"></path><path d="M381.34,168c-.47,9.42,5.81,16.05-2.25,21.21,2.14,6.91,1.5,21.23-1.29,27.17-4.45,3-26.68,4-47.45-1.56-.56-8.11,4.44-24.69-.15-51a10.42,10.42,0,0,1,9.55-12.18c1.65-.11,3.4-.19,5.18-.21a131.29,131.29,0,0,1,18.69.61c2,.25,4.08.58,6.07.92A14.29,14.29,0,0,1,381.34,168Z" style="fill:#fff;opacity:0.6000000000000001"></path><path d="M363.9,162.85s-10.77-3.61-15.16,1.51c-5.47-2.36-4.24-11.91-3.81-12.9C353.83,152.93,363.9,162.85,363.9,162.85Z" style="fill:#fff"></path><path d="M363.9,162.85s6.26-2.6,9.53,1.05a13.5,13.5,0,0,0-9.13-11.74C365.3,154.13,363.9,162.85,363.9,162.85Z" style="fill:#fff"></path><path d="M345.05,130.4c1.29,6.06,2.42,15.91-.12,21.06a87.11,87.11,0,0,0,19,11.39c2.26-7.18.4-10.69.4-10.69-4.67-1.26-5.23-7-5.08-11.49Z" style="fill:#7f3e3b"></path><path d="M359.23,140.67l-8.07-5.85a7.29,7.29,0,0,0,.62,3.69,15.62,15.62,0,0,0,7.74,7.41A25.2,25.2,0,0,1,359.23,140.67Z" style="opacity:0.2"></path><path d="M341.5,119.24c2,9.85,2.67,14.07,8.32,18.46,8.51,6.62,19.94,2,20.84-8.26.81-9.23-2.63-23.8-12.74-26.39S339.47,109.38,341.5,119.24Z" style="fill:#7f3e3b"></path><path d="M363.67,105.28c-11.51,3.49-12.06,14.52-18.74,11.58,4.69,5.18-1.11,7.49-1.11,7.49s-7.38-1-6.33-10.19S355.32,96.32,363.67,105.28Z" style="fill:#263238"></path><path d="M343.82,125.85c-.53-14.42,19.45-25.71,19.45-25.71-.47-1.65-2.88-1.24-2.88-1.24s-20.32,3.92-19.85,25A4.28,4.28,0,0,0,343.82,125.85Z" style="fill:#92E3A9"></path><path d="M356.12,120.51c.12.81.64,1.4,1.17,1.33s.86-.8.75-1.61-.64-1.4-1.17-1.32S356,119.7,356.12,120.51Z" style="fill:#263238"></path><path d="M366.1,119.22c.11.81.64,1.41,1.17,1.33s.86-.79.74-1.6-.64-1.4-1.16-1.33S366,118.42,366.1,119.22Z" style="fill:#263238"></path><path d="M366.62,117.7l1.86-.84S367.7,118.52,366.62,117.7Z" style="fill:#263238"></path><path d="M363.67,119.8a21.91,21.91,0,0,0,3.63,4.75,3.54,3.54,0,0,1-2.81,1Z" style="fill:#630f0f"></path><path d="M360.26,129.17a8.34,8.34,0,0,0,1.38-.08.24.24,0,0,0,.2-.27.25.25,0,0,0-.27-.21,6.46,6.46,0,0,1-5.59-1.75.25.25,0,0,0-.34,0,.24.24,0,0,0,0,.34A6.71,6.71,0,0,0,360.26,129.17Z" style="fill:#263238"></path><path d="M340.29,128.25a7.55,7.55,0,0,0,5.37,3.16c2.71.2,3.42-2.88,2.12-5.59-1.17-2.44-4-5.49-6.45-4.41S338.59,126,340.29,128.25Z" style="fill:#7f3e3b"></path><path d="M353.47,115.38a.48.48,0,0,0,.3-.24,3.89,3.89,0,0,1,2.79-2.06.48.48,0,1,0-.08-1,4.76,4.76,0,0,0-3.55,2.56.48.48,0,0,0,.54.69Z" style="fill:#263238"></path><path d="M370,113.31a.44.44,0,0,0,.31-.17.48.48,0,0,0-.07-.68,4.77,4.77,0,0,0-4.27-1,.48.48,0,0,0-.31.6.49.49,0,0,0,.61.31,3.81,3.81,0,0,1,3.37.83A.47.47,0,0,0,370,113.31Z" style="fill:#263238"></path><path d="M356.64,119l1.87-.83S357.73,119.81,356.64,119Z" style="fill:#263238"></path><path d="M341.19,150.87c4.5,8.67,6,52.26-11.14,57.18-1.93,4.57-13.83,83.26-10.31,106.93,26.48-.47,58.88,2.63,58.88,2.63s7.27-108.62,2.46-126c3.87-2.34,7.15-8.9,2.93-16.4s-11.13-21.67-14.18-23.08a12.11,12.11,0,0,0-4.1-.36s7.38,7.5,7.27,16.23a63.22,63.22,0,0,1-21.89,0s-5.83-15.7-6.71-17.16A5.73,5.73,0,0,0,341.19,150.87Z" style="fill:#92E3A9"></path><path d="M353.58,234.05c-4.33,1.37-16.63.15-21.45-2a111.09,111.09,0,0,0-2,23.91s7.71,5.69,10.77,7.2c5.5-.75,11.08-7.46,11.08-7.46S354.33,240.66,353.58,234.05Z" style="opacity:0.15"></path><path d="M398.82,160.31c6.61-5.53,11.35-10.9,7-14.35-3.79-3-8,1.9-8,1.9s3.64-5.63-1.21-7.49c-5.06-1.94-8.06,5.74-8.06,5.74s1.4-5.66-3.39-5c-6,.88-5.22,12-.32,16.92C389.39,160.13,398.82,160.31,398.82,160.31Z" style="fill:#92E3A9"></path><path d="M398.82,160.31c6.61-5.53,11.35-10.9,7-14.35-3.79-3-8,1.9-8,1.9s3.64-5.63-1.21-7.49c-5.06-1.94-8.06,5.74-8.06,5.74s1.4-5.66-3.39-5c-6,.88-5.22,12-.32,16.92C389.39,160.13,398.82,160.31,398.82,160.31Z" style="fill:#fff;opacity:0.7000000000000001"></path><path d="M396.59,166.05c-.93-11.6,10.81-13.44,14.11-17.75s2.69-6.83,2.69-6.83,6,8,.19,16.08S396.59,166.05,396.59,166.05Z" style="fill:#92E3A9"></path><path d="M396.59,166.05c-.93-11.6,10.81-13.44,14.11-17.75s2.69-6.83,2.69-6.83,6,8,.19,16.08S396.59,166.05,396.59,166.05Z" style="opacity:0.2"></path><path d="M403.18,157.8c2.1-.32,6.16-8.24,8.81-8.64S410,156.17,403.18,157.8Z" style="fill:#fff"></path><path d="M406.1,170.77c5.8-2.9,10.21-6,7.59-9.31-2.26-2.84-6.2,0-6.2,0s3.64-3.5.41-5.7-6.9,2.81-6.9,2.81,2-3.91-1.62-4.23c-4.54-.39-5.91,7.89-3.17,12.34C399.22,169,406.1,170.77,406.1,170.77Z" style="fill:#92E3A9"></path><path d="M406.1,170.77c5.8-2.9,10.21-6,7.59-9.31-2.26-2.84-6.2,0-6.2,0s3.64-3.5.41-5.7-6.9,2.81-6.9,2.81,2-3.91-1.62-4.23c-4.54-.39-5.91,7.89-3.17,12.34C399.22,169,406.1,170.77,406.1,170.77Z" style="fill:#fff;opacity:0.30000000000000004"></path><path d="M382.27,159c.8-4.65.87-8.57-2.18-8.45-2.64.1-2.67,3.63-2.67,3.63s-.47-3.64-3.16-2.7-1.33,5.26-1.33,5.26-1.42-2.86-3.17-.87c-2.19,2.49,2.07,6.85,5.86,7.17C378.27,162.29,382.27,159,382.27,159Z" style="fill:#92E3A9"></path><path d="M382.27,159c.8-4.65.87-8.57-2.18-8.45-2.64.1-2.67,3.63-2.67,3.63s-.47-3.64-3.16-2.7-1.33,5.26-1.33,5.26-1.42-2.86-3.17-.87c-2.19,2.49,2.07,6.85,5.86,7.17C378.27,162.29,382.27,159,382.27,159Z" style="fill:#fff;opacity:0.30000000000000004"></path><path d="M396.68,173.08c6.4-17.4-10.83-25.27-14-33.3s-1.19-11.64-1.19-11.64-12.62,9.72-7.21,24.6S396.68,173.08,396.68,173.08Z" style="fill:#92E3A9"></path><path d="M396.68,173.08c6.4-17.4-10.83-25.27-14-33.3s-1.19-11.64-1.19-11.64-12.62,9.72-7.21,24.6S396.68,173.08,396.68,173.08Z" style="opacity:0.4"></path><path d="M389.41,158.2c-3-1.54-5.13-15.56-8.94-17.51S380,152.31,389.41,158.2Z" style="fill:#fff"></path><path d="M393.76,172.39a.38.38,0,0,1-.36-.25c-4.37-11.07-1.91-23.07,2.23-29.53a.39.39,0,1,1,.66.43c-4,6.3-6.43,18-2.16,28.81a.39.39,0,0,1-.22.51Z" style="fill:#92E3A9"></path><path d="M394.92,144.64s-.43-6.7-3.48-7.4S391.7,143.35,394.92,144.64Z" style="fill:#92E3A9"></path><path d="M393.13,148.66s-.85-6.67-3.93-7.17S389.84,147.57,393.13,148.66Z" style="fill:#92E3A9"></path><path d="M392.14,152.38s-2.39-6.28-5.5-6S388.68,152.1,392.14,152.38Z" style="fill:#92E3A9"></path><path d="M391.4,157.85s-2.38-6.28-5.5-6S388,157.57,391.4,157.85Z" style="fill:#92E3A9"></path><path d="M391.78,163.48s-2.81-6.1-5.9-5.66S388.31,163.44,391.78,163.48Z" style="fill:#92E3A9"></path><path d="M394.19,146.13s4.46-5,7.28-3.71S397.52,147.09,394.19,146.13Z" style="fill:#92E3A9"></path><path d="M392.71,150.36s4.46-5,7.29-3.71S396,151.32,392.71,150.36Z" style="fill:#92E3A9"></path><path d="M391.78,155.07s4.45-5,7.28-3.71S395.11,156,391.78,155.07Z" style="fill:#92E3A9"></path><path d="M391.63,160.89s3.65-5.64,6.64-4.77S395.07,161.34,391.63,160.89Z" style="fill:#92E3A9"></path><path d="M391.78,166.21s3.64-5.64,6.64-4.77S395.22,166.66,391.78,166.21Z" style="fill:#92E3A9"></path><path d="M396,142.82s3.05-6,.78-8.14S393.85,140.08,396,142.82Z" style="fill:#92E3A9"></path><path d="M411.62,168.18c-8.61.42-31.8-10.77-39.37-7.61s-11.86,33-16.51,39.6c-6.2,2.77-9.63,6.61-13,7.75a4.81,4.81,0,0,0-2.11,7.68,32.31,32.31,0,0,0,12.5,9.21c11.45,4.51,5.56-17.82,16.9-20.18S396.52,194.6,411.62,168.18Z" style="fill:#92E3A9"></path><path d="M411.62,168.18c-8.61.42-31.8-10.77-39.37-7.61s-11.86,33-16.51,39.6c-6.2,2.77-9.63,6.61-13,7.75a4.81,4.81,0,0,0-2.11,7.68,32.31,32.31,0,0,0,12.5,9.21c11.45,4.51,5.56-17.82,16.9-20.18S396.52,194.6,411.62,168.18Z" style="fill:#fff;opacity:0.5"></path><path d="M379.43,201.56c-2.2,2.77-6.19,3.64-10,3.18s-11.89-3-14.05-4.39c-.31-2.53,2.51-4.69,2.51-4.69A143.25,143.25,0,0,0,379.43,201.56Z" style="fill:#92E3A9"></path><path d="M379.43,201.56c-2.2,2.77-6.19,3.64-10,3.18s-11.89-3-14.05-4.39c-.31-2.53,2.51-4.69,2.51-4.69A143.25,143.25,0,0,0,379.43,201.56Z" style="fill:#fff;opacity:0.2"></path><path d="M368.75,205c-1,2-3,3.67-4.06,3.61-6.19-.39-12.59-4.22-14-5.68.39-2.4,4.66-3.36,4.66-3.36S358.46,203.36,368.75,205Z" style="fill:#92E3A9"></path><path d="M368.75,205c-1,2-3,3.67-4.06,3.61-6.19-.39-12.59-4.22-14-5.68.39-2.4,4.66-3.36,4.66-3.36S358.46,203.36,368.75,205Z" style="fill:#fff;opacity:0.2"></path><path d="M409.75,180.12l1.32-1.11a6.28,6.28,0,0,0,1.82-2.61l.69-1.9a2.78,2.78,0,0,0-1.21-3.35l-1.75-1a2.78,2.78,0,0,0-3.82,1l-.85,1.49a16.08,16.08,0,0,0-2.76,6.55,1.63,1.63,0,0,0,.9,1.62h0A5.19,5.19,0,0,0,409.75,180.12Z" style="fill:#7f3e3b"></path><path d="M359.78,181.61l3.35-3a8.46,8.46,0,0,1,3.9-2l1.54-.34a3.24,3.24,0,0,1,3.65,1.87l1.56,3.56a3.22,3.22,0,0,1-1.64,4.24l-1.58.71s-5.73,3.44-10.93,2.89l-.49-1.37A7.33,7.33,0,0,1,359.78,181.61Z" style="fill:#7f3e3b"></path><path d="M339.59,168.87l0,.77v.9l0,1.83c0,1.22.07,2.46.16,3.67a54.91,54.91,0,0,0,.9,7.09,30.67,30.67,0,0,0,.81,3.24,20.73,20.73,0,0,0,1.07,2.89,11.9,11.9,0,0,0,2.86,4.06l-2.29-1c-.38-.05-.56,0-.56.05s.18,0,.43,0a9.18,9.18,0,0,0,2.06-.71,39.18,39.18,0,0,0,5.16-3c1.78-1.19,3.56-2.51,5.34-3.86s3.58-2.79,5.32-4.13l.13-.1a3.7,3.7,0,0,1,5.44,4.84,67.18,67.18,0,0,1-9,11.71,40,40,0,0,1-6.07,5.21,21.63,21.63,0,0,1-4.23,2.27,13.44,13.44,0,0,1-3,.81,11.46,11.46,0,0,1-4-.09,5.61,5.61,0,0,1-2-.8l-.32-.21a23.81,23.81,0,0,1-7.74-8.45,37.77,37.77,0,0,1-3.67-9.41,55.32,55.32,0,0,1-1.5-9.28c-.12-1.53-.2-3.06-.21-4.59q0-1.16,0-2.31l.06-1.17.09-1.3a7.37,7.37,0,0,1,14.73.64Z" style="fill:#7f3e3b"></path><path d="M341.52,151.57c3.89,6.68-.7,19.6-.7,19.6s-10.29,6.69-19.27,2.31c-.15-5.16-.93-9.76,2.45-16.17C327,151.59,334.11,148.48,341.52,151.57Z" style="fill:#92E3A9"></path><path d="M341.52,151.57c3.89,6.68-.7,19.6-.7,19.6s-10.29,6.69-19.27,2.31c-.15-5.16-.93-9.76,2.45-16.17C327,151.59,334.11,148.48,341.52,151.57Z" style="fill:#fff;opacity:0.6000000000000001"></path><path d="M362.45,98.43c8.38-3.87,12.64-4.69,19-3.11C373.52,100.77,363.88,99.6,362.45,98.43Z" style="fill:#92E3A9"></path><path d="M362.45,98.43c4.26-8.19,7.13-11.44,13.16-14.1C372.64,93.51,364.3,98.48,362.45,98.43Z" style="fill:#92E3A9"></path></g></svg>