<svg xmlns="http://www.w3.org/2000/svg" viewBox="0 0 500 500"><g id="freepik--background-complete--inject-6"><rect y="382.4" width="500" height="0.25" style="fill:#ebebeb"></rect><rect x="416.78" y="398.49" width="33.12" height="0.25" style="fill:#ebebeb"></rect><rect x="292" y="401.21" width="39.22" height="0.25" style="fill:#ebebeb"></rect><rect x="358.76" y="389.21" width="57.02" height="0.25" style="fill:#ebebeb"></rect><rect x="174.48" y="390.89" width="68.63" height="0.25" style="fill:#ebebeb"></rect><rect x="252.01" y="390.89" width="6.33" height="0.25" style="fill:#ebebeb"></rect><rect x="98.33" y="395.11" width="126.81" height="0.25" style="fill:#ebebeb"></rect><path d="M237,337.8H43.91a5.71,5.71,0,0,1-5.7-5.71V60.66A5.71,5.71,0,0,1,43.91,55H237a5.71,5.71,0,0,1,5.71,5.71V332.09A5.71,5.71,0,0,1,237,337.8ZM43.91,55.2a5.46,5.46,0,0,0-5.45,5.46V332.09a5.46,5.46,0,0,0,5.45,5.46H237a5.47,5.47,0,0,0,5.46-5.46V60.66A5.47,5.47,0,0,0,237,55.2Z" style="fill:#ebebeb"></path><path d="M453.31,337.8H260.21a5.72,5.72,0,0,1-5.71-5.71V60.66A5.72,5.72,0,0,1,260.21,55h193.1A5.71,5.71,0,0,1,459,60.66V332.09A5.71,5.71,0,0,1,453.31,337.8ZM260.21,55.2a5.47,5.47,0,0,0-5.46,5.46V332.09a5.47,5.47,0,0,0,5.46,5.46h193.1a5.47,5.47,0,0,0,5.46-5.46V60.66a5.47,5.47,0,0,0-5.46-5.46Z" style="fill:#ebebeb"></path><circle cx="367.59" cy="112.6" r="25.16" style="fill:#f5f5f5"></circle><path d="M430.73,190.87c-.34-3.36-6.66-5.65-17.32-5.65-13.86,0-30.36,3.86-39.1,8.93a28.3,28.3,0,0,0-6.58-.65c-9.45,0-20.9,2.94-25.57,6.55a8.32,8.32,0,0,0-1.09,1h93a21.44,21.44,0,0,0,4-2.36C443.17,194.74,439.84,191.47,430.73,190.87Z" style="fill:#ebebeb"></path><path d="M141.65,202.61c-.26-2.49-4.93-4.18-12.83-4.18-10.27,0-22.5,2.85-29,6.61a21,21,0,0,0-4.88-.48c-7,0-15.47,2.17-18.94,4.85a6.65,6.65,0,0,0-.81.73h68.9a16.65,16.65,0,0,0,3-1.74C150.86,205.47,148.4,203.05,141.65,202.61Z" style="fill:#f5f5f5"></path><path d="M302,155.45a57.48,57.48,0,0,1,18.66-3.3c8.09,0,11.9,2.25,9.34,5.21a33.36,33.36,0,0,1,4.83-.37c5.52,0,7.77,1.71,5,3.82-.26.19-.55.39-.87.58H284.71A4.21,4.21,0,0,1,286,160C288.93,157.71,295.82,155.8,302,155.45Z" style="fill:#f5f5f5"></path><path d="M185.52,158.87a36.64,36.64,0,0,1,11.9-2.1c5.15,0,7.58,1.44,6,3.32a21.75,21.75,0,0,1,3.08-.24c3.51,0,5,1.09,3.21,2.44a6.55,6.55,0,0,1-.55.37H174.48a2.63,2.63,0,0,1,.78-.88C177.17,160.31,181.56,159.1,185.52,158.87Z" style="fill:#f5f5f5"></path><path d="M188.49,106.41c-.68,0-1.37,0-2.08,0,.36-2.8-4.44-4.76-13-4.76a65.68,65.68,0,0,0-7.06.4c0-3.57-6.44-6-17.55-6-13.56,0-29.62,3.65-38.67,8.53-8.65.63-18,3.29-22.12,6.48a7.48,7.48,0,0,0-1.11,1h109l0,0C200,108.94,196.65,106.41,188.49,106.41Z" style="fill:#ebebeb"></path><path d="M328.54,322.29c-4-36-52.94,39-50.12,9.49,1.71-18,11.48-42.68-17.5-36.15S241.11,335.73,226.8,343s-10.25-25-29.58-23.09c-5.47.54-9.54,4.69-12.57,10.62-.33-10.21-2.7-19.28-8.86-24.18C152,287.44,169,344.11,131,325.59c-13.79-6.73,19.12-47.09-7.9-55.53s-24.61,23.46-28.27,46.79c-6,38.23-32.59-58.85-47.3-12.23C37.94,335,62.78,382.5,62.78,382.5l113-.25v.13l119.55.12S331.13,345.78,328.54,322.29Z" style="fill:#f5f5f5"></path><polygon points="291.42 236.4 299.08 222.67 306.79 237.93 305.33 382.4 292.83 382.4 291.42 236.4" style="fill:#f0f0f0"></polygon><polygon points="279.5 241.33 271.84 222.67 264.13 237.93 265.59 382.4 278.08 382.4 279.5 241.33" style="fill:#f0f0f0"></polygon><polygon points="248.69 236.4 241.03 222.67 233.32 237.93 234.78 382.4 247.28 382.4 248.69 236.4" style="fill:#f0f0f0"></polygon><polygon points="199.24 241.33 206.9 222.67 214.61 237.93 213.15 382.4 200.65 382.4 199.24 241.33" style="fill:#f0f0f0"></polygon><polygon points="405.82 236.4 413.49 222.67 421.2 237.93 419.74 382.4 407.24 382.4 405.82 236.4" style="fill:#f0f0f0"></polygon><polygon points="393.91 241.33 386.24 222.67 378.54 237.93 380 382.4 392.49 382.4 393.91 241.33" style="fill:#f0f0f0"></polygon><polygon points="363.1 236.4 355.44 222.67 347.73 237.93 349.19 382.4 361.69 382.4 363.1 236.4" style="fill:#f0f0f0"></polygon><polygon points="319.09 241.33 326.76 222.67 334.46 237.93 333 382.4 320.51 382.4 319.09 241.33" style="fill:#f0f0f0"></polygon><polygon points="199.62 280.09 214.19 280.1 214.34 265.35 199.47 265.24 199.62 280.09" style="fill:#e0e0e0"></polygon><polygon points="233.75 280.11 248.27 280.12 248.41 265.61 233.6 265.5 233.75 280.11" style="fill:#e0e0e0"></polygon><polygon points="264.56 280.12 279.11 280.13 279.25 265.85 264.42 265.74 264.56 280.12" style="fill:#e0e0e0"></polygon><polygon points="291.84 280.13 306.36 280.14 306.5 266.06 291.7 265.94 291.84 280.13" style="fill:#e0e0e0"></polygon><polygon points="319.48 280.15 334.04 280.15 334.18 266.27 319.34 266.16 319.48 280.15" style="fill:#e0e0e0"></polygon><polygon points="348.15 280.16 362.68 280.17 362.81 266.49 348.02 266.38 348.15 280.16" style="fill:#e0e0e0"></polygon><polygon points="378.96 280.17 393.52 280.18 393.65 266.73 378.83 266.61 378.96 280.17" style="fill:#e0e0e0"></polygon><polygon points="406.11 266.83 406.25 280.19 420.77 280.19 420.9 266.94 406.11 266.83" style="fill:#e0e0e0"></polygon><polygon points="192.55 271.89 434.98 276.19 434.77 263.03 190 256.92 192.55 271.89" style="fill:#f0f0f0"></polygon></g><g id="freepik--Shadow--inject-6"><ellipse id="freepik--path--inject-6" cx="250" cy="416.24" rx="193.89" ry="11.32" style="fill:#f5f5f5"></ellipse></g><g id="freepik--Garden--inject-6"><path d="M382.22,412h6S387.61,386,400,361.61s9.19-39.85,1.83-33.7S383.82,369.24,382.22,412Z" style="fill:#263238"></path><path d="M381.81,409.21l-4.68,2.55c-9.88,5.37-21.49,5.81-33.32.86-7.09-3-13.27-7.54-13.87-14.52-1.46-17,19.1,5.52,19.71-4.39s-23.77-7.55-23.89-18.46,26.9,10.49,26-5.11-25.22-.43-25.65-12.15,24.2,1.48,25-8.71-25.23-1.4-23.3-13.18,26.4,12.47,29.77,2.83-29.63-6.92-22.3-18.05,23.85,7.84,28,3.45-16.13-8.77-13.49-15.06,12-7.41,22.36,1.92c11.91,10.78,20.52,25,18.84,33.73s-12.12-11.41-15.14-6.11c-6.4,11.24,15.95,14.45,16.88,24.92s-18.25-10.8-21.83-4.47c-6.68,11.84,27.4,13.43,24.25,21.08-3.63,8.8-27.3-8.44-28.38,2.63-1.6,16.54,21-2.43,24.52,8.75S381.81,409.21,381.81,409.21Z" style="fill:#92E3A9"></path><path d="M381.81,409.21l-4.68,2.55c-9.88,5.37-21.49,5.81-33.32.86-7.09-3-13.27-7.54-13.87-14.52-1.46-17,19.1,5.52,19.71-4.39s-23.77-7.55-23.89-18.46,26.9,10.49,26-5.11-25.22-.43-25.65-12.15,24.2,1.48,25-8.71-25.23-1.4-23.3-13.18,26.4,12.47,29.77,2.83-29.63-6.92-22.3-18.05,23.85,7.84,28,3.45-16.13-8.77-13.49-15.06,12-7.41,22.36,1.92c11.91,10.78,20.52,25,18.84,33.73s-12.12-11.41-15.14-6.11c-6.4,11.24,15.95,14.45,16.88,24.92s-18.25-10.8-21.83-4.47c-6.68,11.84,27.4,13.43,24.25,21.08-3.63,8.8-27.3-8.44-28.38,2.63-1.6,16.54,21-2.43,24.52,8.75S381.81,409.21,381.81,409.21Z" style="fill:#fff;opacity:0.8"></path><path d="M341.26,414.21h-12a150.24,150.24,0,0,0-19.56-51.71c-16-26.21-5.14-35.24,7.22-27.9S338.05,371.47,341.26,414.21Z" style="fill:#92E3A9"></path><path d="M341.26,414.21h-12a150.24,150.24,0,0,0-19.56-51.71c-16-26.21-5.14-35.24,7.22-27.9S338.05,371.47,341.26,414.21Z" style="opacity:0.2"></path><path d="M355.94,416.08h-15a166.44,166.44,0,0,0-13.6-64.79c-14.53-32.84,1-44.14,14.92-35S360.94,362.54,355.94,416.08Z" style="fill:#92E3A9"></path><path d="M385,417H391s.6-17.78,13.07-29.93c11.4-11.1,3.15-15-4.36-10S385.16,402,385,417Z" style="fill:#92E3A9"></path><path d="M320.23,416.08H308.82s3.7-13.7-1.6-32C317.83,393.22,320.33,407.66,320.23,416.08Z" style="fill:#92E3A9"></path><path d="M312.37,416.08h-8.13s1-9.76-4.91-22.8C308,399.79,311.45,410.08,312.37,416.08Z" style="fill:#92E3A9"></path><path d="M401.29,416.08h4.88s-.62-5.86,2.95-13.69C403.94,406.3,401.85,412.48,401.29,416.08Z" style="fill:#92E3A9"></path><path d="M270.14,411.84h4.06s-.51-4.88,2.46-11.4A18.2,18.2,0,0,0,270.14,411.84Z" style="fill:#92E3A9"></path><path d="M270.14,411.84h4.06s-.51-4.88,2.46-11.4A18.2,18.2,0,0,0,270.14,411.84Z" style="fill:#fff;opacity:0.6000000000000001"></path><path d="M98.4,411.84H90.24s1-9.8-4.94-22.92C94,395.47,97.48,405.81,98.4,411.84Z" style="fill:#92E3A9"></path><path d="M98.4,411.84H90.24s1-9.8-4.94-22.92C94,395.47,97.48,405.81,98.4,411.84Z" style="opacity:0.2"></path><path d="M100.86,416.37h4.33s-.55-5.19,2.61-12.13C103.21,407.71,101.35,413.18,100.86,416.37Z" style="fill:#92E3A9"></path><path d="M100.86,416.37h4.33s-.55-5.19,2.61-12.13C103.21,407.71,101.35,413.18,100.86,416.37Z" style="fill:#fff;opacity:0.2"></path><polygon points="124.46 306.91 116.33 292.33 108.15 308.53 109.7 410.41 122.96 410.41 124.46 306.91" style="fill:#92E3A9"></polygon><polygon points="124.46 306.91 116.33 292.33 108.15 308.53 109.7 410.41 122.96 410.41 124.46 306.91" style="fill:#fff;opacity:0.6000000000000001"></polygon><polygon points="137.1 312.14 145.23 292.33 153.41 308.53 151.86 410.41 138.6 410.41 137.1 312.14" style="fill:#92E3A9"></polygon><polygon points="137.1 312.14 145.23 292.33 153.41 308.53 151.86 410.41 138.6 410.41 137.1 312.14" style="fill:#fff;opacity:0.6000000000000001"></polygon><polygon points="169.78 306.91 177.91 292.33 186.09 308.53 184.54 410.41 171.28 410.41 169.78 306.91" style="fill:#92E3A9"></polygon><polygon points="169.78 306.91 177.91 292.33 186.09 308.53 184.54 410.41 171.28 410.41 169.78 306.91" style="fill:#fff;opacity:0.6000000000000001"></polygon><polygon points="222.25 312.14 214.12 292.33 205.94 308.53 207.49 410.41 220.75 410.41 222.25 312.14" style="fill:#92E3A9"></polygon><polygon points="222.25 312.14 214.12 292.33 205.94 308.53 207.49 410.41 220.75 410.41 222.25 312.14" style="fill:#fff;opacity:0.6000000000000001"></polygon><g style="opacity:0.5"><polygon points="108.72 346.07 123.9 345.37 124.13 329.29 108.48 330.26 108.72 346.07" style="fill:#92E3A9"></polygon><polygon points="137.6 344.75 152.87 344.05 153.12 327.49 137.35 328.46 137.6 344.75" style="fill:#92E3A9"></polygon><polygon points="170.31 343.25 185.57 342.54 185.83 325.46 170.07 326.44 170.31 343.25" style="fill:#92E3A9"></polygon><polygon points="206.18 324.2 206.44 341.58 221.81 340.88 222.09 323.22 206.18 324.2" style="fill:#92E3A9"></polygon></g><polygon points="226.49 335.48 97.13 341.42 96.89 325.8 227.45 317.7 226.49 335.48" style="fill:#92E3A9"></polygon><polygon points="226.49 335.48 97.13 341.42 96.89 325.8 227.45 317.7 226.49 335.48" style="fill:#fff;opacity:0.6000000000000001"></polygon></g><g id="freepik--Character--inject-6"><path d="M260.9,130c-18-4.89-26.63-1.37-35.87,1s-8-5.67,9.24-13c11.11-4.71,24.17-.49,34.71,5.14,14,7.5,32.79-2.77,26.22,4.42S273.77,133.5,260.9,130Z" style="fill:#92E3A9"></path><path d="M260.9,130c-18-4.89-26.63-1.37-35.87,1s-8-5.67,9.24-13c11.11-4.71,24.17-.49,34.71,5.14,14,7.5,32.79-2.77,26.22,4.42S273.77,133.5,260.9,130Z" style="opacity:0.30000000000000004"></path><path d="M259.67,115.61c-2.55-1.17-11.41-1-15.51-.06-8.69,2-9.5,10.89-6.39,18.84s4.16,32.16,27.62,16.79C285.18,138.2,272.91,114.54,259.67,115.61Z" style="fill:#263238"></path><path d="M270.68,172.52c-.08,2.49-.12,5.2-.06,7.81s.11,5.27.31,7.88a99.84,99.84,0,0,0,2.15,15.4l.46,1.85c.07.35.14.52.21.77s.18.49.26.74a27,27,0,0,0,1.52,3.2,75.49,75.49,0,0,0,4.14,6.53c1.5,2.16,3.09,4.31,4.73,6.42s3.32,4.25,5,6.32l-3.11,3.13a112.49,112.49,0,0,1-12-11.64,62.4,62.4,0,0,1-5.28-6.8,30.71,30.71,0,0,1-2.3-4c-.16-.38-.34-.74-.49-1.15s-.33-.86-.42-1.17l-.64-2.08a73.52,73.52,0,0,1-1.94-8.38c-.53-2.8-.84-5.61-1.11-8.42s-.44-5.61-.49-8.42-.05-5.56.14-8.52Z" style="fill:#ffb573"></path><path d="M268,161.76c7.17,3.91,4.41,19.29,4.41,19.29l-13.22,4.51s-7.06-18.21-2.82-21.66C260.78,160.31,262.45,158.73,268,161.76Z" style="fill:#263238"></path><polygon points="268.24 166.29 269.91 181.92 260.09 185.26 268.24 166.29" style="opacity:0.2"></polygon><path d="M287.92,228l9.72,1.91L291,235.74s-5.27-1.91-5.79-5.5Z" style="fill:#ffb573"></path><polygon points="302.63 234.04 297.84 239.74 290.97 235.74 297.64 229.89 302.63 234.04" style="fill:#ffb573"></polygon><polygon points="231.32 407.33 240.05 407.33 240.63 387.12 231.91 387.12 231.32 407.33" style="fill:#ffb573"></polygon><polygon points="162.17 374.56 169.63 379.08 182.49 363.23 175.02 358.72 162.17 374.56" style="fill:#ffb573"></polygon><path d="M170.73,378.41l-6.6-7.25a.69.69,0,0,0-.91-.11l-6.49,4.39a1.4,1.4,0,0,0-.2,2.08c2.34,2.49,3.6,3.57,6.5,6.76,1.79,2,5.56,8,8,10.68s5.28.41,4.49-.94a29.91,29.91,0,0,1-4.23-14.17A2.29,2.29,0,0,0,170.73,378.41Z" style="fill:#263238"></path><path d="M240.35,406.32h-9.81a.69.69,0,0,0-.69.59l-1.12,7.76a1.41,1.41,0,0,0,1.4,1.55c3.42-.06,5.06-.26,9.38-.26,2.65,0,8.84.28,12.5.28s3.86-3.62,2.33-3.95c-6.83-1.47-10.23-3.5-12.53-5.44A2.34,2.34,0,0,0,240.35,406.32Z" style="fill:#263238"></path><g style="opacity:0.2"><polygon points="240.63 387.13 240.33 397.54 231.6 397.54 231.9 387.13 240.63 387.13"></polygon><polygon points="175.01 358.72 182.48 363.24 175.43 371.92 168.38 366.89 175.01 358.72"></polygon></g><path d="M270.59,166.15c-.32,5.49-2.46,18.22-11,47.6l-35.17-4.35c2.27-13.67,3.38-22.35.63-49.74a3.43,3.43,0,0,1,3.25-3.78,101.27,101.27,0,0,1,11.56.11,112.92,112.92,0,0,1,16,2c4,.88,8.38,2.14,11.22,3A5.09,5.09,0,0,1,270.59,166.15Z" style="fill:#92E3A9"></path><path d="M250.82,188h-.08l-13.37-3.92a.26.26,0,0,1-.18-.3l.73-3.87a.27.27,0,0,1,.29-.21l23.16,2a.26.26,0,0,1,.24.28l-.26,3.93a.29.29,0,0,1-.22.25L250.86,188Zm-13.07-4.37,13.08,3.83,10-1.78.23-3.46-22.66-2Z" style="fill:#fff"></path><path d="M230.14,155.81l-1.9.07a3.43,3.43,0,0,0-3.24,3.78c.72,7.17,1.17,13.06,1.42,18.08a43.6,43.6,0,0,0,4.86-2.93S233.15,164.82,230.14,155.81Z" style="fill:#263238"></path><path d="M267,161c-.84-.26-1.82-.56-2.88-.87.89,2,2.28,11.4.89,18.5a9,9,0,0,0,3.32,1.7,97.73,97.73,0,0,0,2.27-14.18A5.1,5.1,0,0,0,267,161Z" style="fill:#263238"></path><path d="M260.57,159.13c-1.57-.41-3.2-.82-4.79-1.17a113.15,113.15,0,0,0-16-2c-2-.15-4-.21-5.85-.22,1.25,2.22,2.85,12.36,2.17,18.65,10.15,2.93,25.3,3.32,25.3,3.32S263.21,165.4,260.57,159.13Z" style="fill:#263238"></path><path d="M243.62,138.2c.37,5.27.21,14.81-3.81,17.79,0,0,1.83,6.09,10.36,10.51,6.87-2.37,5.61-8.53,5.61-8.53-5.56-2.08-4.89-6.31-3.39-10.18Z" style="fill:#ffb573"></path><path d="M247.19,142.11l5.19,5.67a16.08,16.08,0,0,0-.84,2.78c-2.15-.59-4.86-3.37-4.81-5.69A8,8,0,0,1,247.19,142.11Z" style="opacity:0.2"></path><path d="M244.42,124.77c-2.63,8.25-3.93,11.69-1.47,17.41,3.71,8.6,14.41,10,19.46,2.74,4.55-6.57,8.1-18.95,1.46-25.23A11.82,11.82,0,0,0,244.42,124.77Z" style="fill:#ffb573"></path><path d="M244.19,118.4,241.88,132c6.87-2.32,19.59-8,21.29-11.19C266.32,114.77,249.4,113.9,244.19,118.4Z" style="fill:#263238"></path><path d="M240.23,115.73c-.67-4.06-5.34-10.65.64-14.17S267,101.1,269,104.72c3.73,7,3.93,17.3,3.93,17.3S255.42,115.09,240.23,115.73Z" style="fill:#92E3A9"></path><path d="M238.47,110.88a29.35,29.35,0,0,1,1.5,5c.62-.22,13-.86,20.75,2.16a109.65,109.65,0,0,0,13.12,4.29s-.62-4.33-1.28-7.28S252.24,107.41,238.47,110.88Z" style="fill:#92E3A9"></path><path d="M238.47,110.88a29.35,29.35,0,0,1,1.5,5c.62-.22,13-.86,20.75,2.16a109.65,109.65,0,0,0,13.12,4.29s-.62-4.33-1.28-7.28S252.24,107.41,238.47,110.88Z" style="fill:#fff;opacity:0.30000000000000004"></path><path d="M234.27,118c11.25-4.36,24.17-.49,34.71,5.14,11.11,5.93,25.15.75,27.29,1.88-1.1-1-2.55-.79-7-.52s-10.87-.62-15.59-3.35a45.69,45.69,0,0,0-23.48-7c-12.31-.47-25.06,6.29-30.09,13.3C223.65,126.2,227.28,120.73,234.27,118Z" style="fill:#92E3A9"></path><path d="M259.54,213.75s-1.41,67.55-5.25,93.89c-4,27.4-12.58,87.89-12.58,87.89h-11.8s.27-61.35,2.58-88.46c2.5-29.55,1.3-96.51,1.3-96.51Z" style="fill:#92E3A9"></path><polygon points="228.89 395.95 242.73 395.95 243.75 391.53 228.25 390.99 228.89 395.95" style="fill:#92E3A9"></polygon><polygon points="228.89 395.95 242.73 395.95 243.75 391.53 228.25 390.99 228.89 395.95" style="opacity:0.30000000000000004"></polygon><path d="M242.32,228.47c6.49,18.45-4.33,49.29-8.85,60.71.63-17.91.66-39.89.57-56C236.46,224.3,239.33,220,242.32,228.47Z" style="opacity:0.2"></path><path d="M250.26,212.6S233.71,281,224.94,302.49c-10.41,25.55-45,67.06-45,67.06l-10.38-5.81s25.08-49,32.27-62.29c15.33-28.28,10.83-73.81,22.54-92Z" style="fill:#92E3A9"></path><polygon points="166.56 364.2 179.2 371.83 182.94 368.67 168.49 359.02 166.56 364.2" style="fill:#92E3A9"></polygon><polygon points="166.56 364.2 179.2 371.83 182.94 368.67 168.49 359.02 166.56 364.2" style="opacity:0.30000000000000004"></polygon><path d="M256.44,131.91c-.26.66-.11,1.32.31,1.49s1-.23,1.24-.89.12-1.32-.31-1.49S256.69,131.25,256.44,131.91Z" style="fill:#263238"></path><path d="M263.85,134.79c-.25.66-.11,1.33.32,1.49s1-.23,1.24-.88.11-1.33-.32-1.49S264.11,134.14,263.85,134.79Z" style="fill:#263238"></path><path d="M264.89,133.87l1.75.16S265.35,135,264.89,133.87Z" style="fill:#263238"></path><path d="M261.11,135.09a18.57,18.57,0,0,0,.71,5.09,3,3,0,0,1-2.51-.47Z" style="fill:#ed893e"></path><path d="M254.73,140.89a9.14,9.14,0,0,0,.94.45.21.21,0,0,0,.15-.39,5.52,5.52,0,0,1-3.44-3.68.21.21,0,0,0-.41.09A5.78,5.78,0,0,0,254.73,140.89Z" style="fill:#263238"></path><path d="M239.47,131.07a6.33,6.33,0,0,0,1.41,4.62c1.43,1.71,3.39.74,4-1.26.59-1.8.56-4.86-1.38-5.83A2.84,2.84,0,0,0,239.47,131.07Z" style="fill:#ffb573"></path><path d="M255.44,127.59a.4.4,0,0,0,.47.13c1.79-.66,3.83.73,3.85.74a.41.41,0,0,0,.47-.68c-.1-.07-2.42-1.64-4.61-.83a.42.42,0,0,0-.25.53A.41.41,0,0,0,255.44,127.59Z" style="fill:#263238"></path><path d="M268.36,131a.41.41,0,0,0,.57-.56,4.14,4.14,0,0,0-3.1-2.15.42.42,0,0,0-.44.39.41.41,0,0,0,.38.44,3.28,3.28,0,0,1,2.44,1.73A.31.31,0,0,0,268.36,131Z" style="fill:#263238"></path><path d="M173,382.55l.11,0a1.17,1.17,0,0,0,1-.49.67.67,0,0,0,.15-.69c-.34-1.06-3.39-1.87-3.74-2a.21.21,0,0,0-.21.07.21.21,0,0,0,0,.23C170.84,380.72,171.89,382.36,173,382.55ZM170.9,380c1.21.35,2.79,1,3,1.55a.3.3,0,0,1-.08.3.79.79,0,0,1-.68.34C172.5,382.11,171.7,381.29,170.9,380Z" style="fill:#92E3A9"></path><path d="M170.72,379.9c1.07.2,3.12.05,3.65-.68a.71.71,0,0,0,0-.9,1.09,1.09,0,0,0-.79-.46c-1.26-.14-3.13,1.55-3.21,1.62a.22.22,0,0,0-.06.19.23.23,0,0,0,.14.16Zm2.84-1.62a.66.66,0,0,1,.43.28c.16.22.11.34,0,.42-.36.49-2.07.71-3.12.54a4.77,4.77,0,0,1,2.57-1.25Z" style="fill:#92E3A9"></path><path d="M243.62,407.84a3.31,3.31,0,0,0,2.12-.53,1.16,1.16,0,0,0,.37-1,.65.65,0,0,0-.35-.55c-1.07-.59-4.55,1.19-4.94,1.4a.2.2,0,0,0-.11.21.23.23,0,0,0,.17.17A14.57,14.57,0,0,0,243.62,407.84Zm1.56-1.8a.81.81,0,0,1,.38.07.26.26,0,0,1,.14.23.72.72,0,0,1-.24.66c-.53.48-2,.56-3.9.24A11.13,11.13,0,0,1,245.18,406Z" style="fill:#92E3A9"></path><path d="M240.92,407.54l.08,0c1-.47,3.1-2.36,2.94-3.34,0-.24-.21-.53-.78-.59A1.5,1.5,0,0,0,242,404c-1.1.91-1.3,3.26-1.31,3.36a.22.22,0,0,0,.09.19A.25.25,0,0,0,240.92,407.54ZM243,404h.12c.38,0,.4.19.41.24.1.6-1.3,2.08-2.36,2.72a4.78,4.78,0,0,1,1.11-2.69A1.09,1.09,0,0,1,243,404Z" style="fill:#92E3A9"></path><path d="M257.47,131l1.76.16S257.94,132.06,257.47,131Z" style="fill:#263238"></path><polygon points="294.51 288.59 239.11 269.59 263.03 223.1 304.14 237.19 294.51 288.59" style="fill:#263238"></polygon><polygon points="296.24 289.18 287.47 286.17 329.66 256.01 329.58 259.88 296.24 289.18" style="fill:#263238"></polygon><path d="M259.47,265.51A35.46,35.46,0,1,1,275,261.89,35.42,35.42,0,0,1,259.47,265.51Zm-.06-67.67a32.32,32.32,0,1,0,10.48,1.76A32.11,32.11,0,0,0,259.41,197.84Z" style="fill:#263238"></path><polygon points="327.55 245.06 328.21 259.14 340.19 266.58 327.55 245.06" style="fill:#263238"></polygon><path d="M230.68,203.14l7.47-4-1.8,8.69s-5.36,1.65-7.93-.9l1.06-2.44A2.73,2.73,0,0,1,230.68,203.14Z" style="fill:#ffb573"></path><path d="M227.4,171.78c-.6.75-1.3,1.67-2,2.53s-1.3,1.78-1.92,2.69c-1.24,1.81-2.48,3.63-3.59,5.51a58.51,58.51,0,0,0-5.47,11.57l-.42,1.32a2.17,2.17,0,0,0-.1.53,1.55,1.55,0,0,0,.36,1,11.23,11.23,0,0,0,4.22,2.86,41.48,41.48,0,0,0,6.06,2.09c2.11.59,4.35,1.07,6.49,1.48l-.22,4.41a46.13,46.13,0,0,1-14.66-1.59,23.77,23.77,0,0,1-3.77-1.49,13.45,13.45,0,0,1-3.78-2.74,9.39,9.39,0,0,1-2.54-5.15,9.8,9.8,0,0,1,0-2.92c0-.21.08-.49.12-.65l.11-.46.23-.94c.28-1.26.69-2.44,1.06-3.65s.85-2.37,1.35-3.5a63.68,63.68,0,0,1,3.26-6.63c1.2-2.13,2.46-4.2,3.84-6.2.69-1,1.4-2,2.13-3s1.46-1.9,2.34-2.93Z" style="fill:#ffb573"></path><path d="M227.76,155.94c-10.25,2.14-14.95,14.54-14.95,14.54L225,181.92s5.53-2.35,6.3-7.11C232.08,169.85,230.61,155.34,227.76,155.94Z" style="fill:#263238"></path><polygon points="245.38 200.32 243.48 207.51 236.35 207.79 238.15 199.1 245.38 200.32" style="fill:#ffb573"></polygon></g></svg>