<svg xmlns="http://www.w3.org/2000/svg" viewBox="0 0 500 500"><!--Gardening--><g id="freepik--Grass--inject-1--inject-8"><ellipse id="freepik--Floor--inject-1--inject-8" cx="251.11" cy="353.2" rx="229.63" ry="116.22" style="fill:#92E3A9"></ellipse><ellipse id="freepik--floor--inject-1--inject-8" cx="251.11" cy="353.2" rx="229.63" ry="116.22" style="opacity:0.5"></ellipse></g><g id="freepik--Shadow--inject-1--inject-8"><path id="freepik--shadow--inject-1--inject-8" d="M72.18,359.88c-6.66,3.68-12.22,15.44,1.33,17.74,4.34.74,12.15.12,21.06-1.5,6.32-1.15,12-1,17.56,2.17,4.14,2.35,9.15,5.24,14.67,7.72,33.21,14.93,41.88.82,41.88.82,2.73,1.07,6.64.41,11.4,1.4,5.57,1.15,14.37,8.88,29.08,6.84s12.28-12.05-7.95-17.54-78.05-24.35-95.52-26.74S72.18,359.88,72.18,359.88Z" style="opacity:0.1"></path><path id="freepik--shadow--inject-1--inject-8" d="M398.38,363.18,376.07,350.3l-10.9,6.29c-4.46,2.58-11.58,2.3-15.82-.62L285,311.71c-4.24-2.92-4.07-7.41.39-10l40.81-23.57c4.46-2.57,11.9-2.84,16.53-.59l78.19,37.92c4.63,2.25,4.77,6.19.32,8.76l-10.79,6.23,22.21,12.92c4.44,2.59,4.44,6.81,0,9.38l-18,10.4C410.13,365.75,402.84,365.75,398.38,363.18Z" style="opacity:0.1"></path></g><g id="freepik--Flowers--inject-1--inject-8"><g id="freepik--flowers--inject-1--inject-8"><path d="M253.91,424.07s-1-1.93-4.52-1.25a8.39,8.39,0,0,0-5.08,3s3,3.8,7,2.71S253.91,424.07,253.91,424.07Z" style="fill:#92E3A9"></path><path d="M253.91,424.07s-1-1.93-4.52-1.25a8.39,8.39,0,0,0-5.08,3s3,3.8,7,2.71S253.91,424.07,253.91,424.07Z" style="opacity:0.1"></path><path d="M251.33,428.5c2.48-.67,2.88-2.18,2.83-3.25-4.11-2.05-9.85.54-9.85.54S247.29,429.59,251.33,428.5Z" style="opacity:0.1"></path><path d="M257.07,423.54s1.53-1.57-.18-4.68a8.38,8.38,0,0,0-4.38-3.94s-2.7,4-.44,7.51S257.07,423.54,257.07,423.54Z" style="fill:#92E3A9"></path><path d="M257.07,423.54s1.53-1.57-.18-4.68a8.38,8.38,0,0,0-4.38-3.94s-2.7,4-.44,7.51S257.07,423.54,257.07,423.54Z" style="opacity:0.1"></path><path d="M252.07,422.43c1.39,2.15,3,2.08,4,1.71.7-4.54-3.52-9.22-3.52-9.22S249.81,418.91,252.07,422.43Z" style="opacity:0.1"></path><path d="M255.39,423.22s1.58-4,3.29-2.7-.37,3.47-.37,3.47,3,.47,2.05,2.12-3.64.51-3.64.51.14,3-1.88,2.46-1.05-3.33-1.05-3.33-2.75.42-3-1.35S253.68,422,255.39,423.22Z" style="fill:#fafafa"></path><path d="M267.61,401.49s-.4-4.54-7.61-6.07A17.39,17.39,0,0,0,247.86,397s2.63,9.67,11.24,10.86S267.61,401.49,267.61,401.49Z" style="fill:#92E3A9"></path><path d="M267.61,401.49s-.4-4.54-7.61-6.07A17.39,17.39,0,0,0,247.86,397s2.63,9.67,11.24,10.86S267.61,401.49,267.61,401.49Z" style="opacity:0.1"></path><path d="M259.1,407.85c5.27.73,7.27-1.82,8-3.91C261,396.69,247.86,397,247.86,397S250.49,406.66,259.1,407.85Z" style="opacity:0.1"></path><path d="M275.72,397.71s-1-4.45,5.45-8.06a17.42,17.42,0,0,1,12.06-2.14s.38,10-7.48,13.73S275.72,397.71,275.72,397.71Z" style="fill:#92E3A9"></path><path d="M275.72,397.71s-1-4.45,5.45-8.06a17.42,17.42,0,0,1,12.06-2.14s.38,10-7.48,13.73S275.72,397.71,275.72,397.71Z" style="opacity:0.1"></path><path d="M285.75,401.24c-4.82,2.27-7.49.43-8.85-1.33,3.74-8.77,16.33-12.4,16.33-12.4S293.61,397.53,285.75,401.24Z" style="opacity:0.1"></path><path d="M270.71,407.1s-4.78,4.6-1.48,9.69,11.27,6.67,11.27,6.67,3.72-7.52-.65-13.12A9,9,0,0,0,270.71,407.1Z" style="fill:#92E3A9"></path><path d="M270.71,407.1s-4.78,4.6-1.48,9.69,11.27,6.67,11.27,6.67,3.72-7.52-.65-13.12A9,9,0,0,0,270.71,407.1Z" style="opacity:0.1"></path><path d="M269.23,416.79c3.24,5,11.27,6.67,11.27,6.67-.67-8.1-9.79-16.36-9.79-16.36S265.93,411.7,269.23,416.79Z" style="opacity:0.1"></path><path d="M278.05,398.44s-.38-4.75-4.12-5.23c0,0-3.06-.49-4.72,4.29,0,0-3.76-1.84-8.83,1.09,0,0-.81,4.42,4.13,6.08,0,0-2.87,2.23-1.47,7.49,0,0,7.67,2.48,9.5-2.29,0,0,.71,4.24,8.19,4.18a7.12,7.12,0,0,0-.07-8.49s5.26-.22,6.08-4.13C286.74,401.43,283.12,395.51,278.05,398.44Z" style="fill:#fafafa"></path><path d="M273.46,399.24a5.21,5.21,0,0,0-5.62,3.54s0,2.77,4.8,3.14,5.46-2.43,5.46-2.43A4.66,4.66,0,0,0,273.46,399.24Z" style="fill:#ffa8a7"></path><path d="M220.91,415.4s-1.82-3.52-8.13-2.38a15.17,15.17,0,0,0-9.26,5.27s5.3,6.92,12.63,5S220.91,415.4,220.91,415.4Z" style="fill:#92E3A9"></path><path d="M220.91,415.4s-1.82-3.52-8.13-2.38a15.17,15.17,0,0,0-9.26,5.27s5.3,6.92,12.63,5S220.91,415.4,220.91,415.4Z" style="opacity:0.1"></path><path d="M216.15,423.33c4.49-1.15,5.26-3.86,5.19-5.8-7.37-3.8-17.82.76-17.82.76S208.82,425.21,216.15,423.33Z" style="opacity:0.1"></path><path d="M226.11,418.8s-3.88,3.74-1.2,7.87,9.15,5.41,9.15,5.41,3-6.1-.53-10.64A7.31,7.31,0,0,0,226.11,418.8Z" style="fill:#92E3A9"></path><path d="M226.11,418.8s-3.88,3.74-1.2,7.87,9.15,5.41,9.15,5.41,3-6.1-.53-10.64A7.31,7.31,0,0,0,226.11,418.8Z" style="opacity:0.1"></path><path d="M224.91,426.67c2.63,4.06,9.15,5.41,9.15,5.41-.54-6.57-7.95-13.28-7.95-13.28S222.23,422.54,224.91,426.67Z" style="opacity:0.1"></path><path d="M228.64,410.05s-1.7-3.38-4.44-3.74a7.57,7.57,0,0,0-2.69,4.88,6.92,6.92,0,0,0-6,1.53,6.4,6.4,0,0,0,3.85,4.37,8.57,8.57,0,0,0,.25,6.27s5.29.34,7.12-4.08c0,0,2,2.91,7.35,1.85a5.5,5.5,0,0,0-2-6.39s3.32-1.95,2.9-5.15A8.29,8.29,0,0,0,228.64,410.05Z" style="fill:#fafafa"></path><path d="M225.65,412.06a3.86,3.86,0,0,0-3.72,3.23s.33,2,3.86,1.76,3.74-2.38,3.74-2.38A3.47,3.47,0,0,0,225.65,412.06Z" style="fill:#ffa8a7"></path><path d="M240.53,446.26s-1-3.22-6.46-3.19a12.93,12.93,0,0,0-8.54,3.06s3.43,6.58,9.85,6.08S240.53,446.26,240.53,446.26Z" style="fill:#92E3A9"></path><path d="M240.53,446.26s-1-3.22-6.46-3.19a12.93,12.93,0,0,0-8.54,3.06s3.43,6.58,9.85,6.08S240.53,446.26,240.53,446.26Z" style="opacity:0.1"></path><path d="M235.38,452.21c3.93-.3,5-2.47,5.2-4.1-5.62-4.27-15.05-2-15.05-2S229,452.71,235.38,452.21Z" style="opacity:0.1"></path><path d="M247.14,445s-1.47-3.85,3.78-7.95a15.75,15.75,0,0,1,10.49-3.54s1.69,8.9-4.83,13.28S247.14,445,247.14,445Z" style="fill:#92E3A9"></path><path d="M247.14,445s-1.47-3.85,3.78-7.95a15.75,15.75,0,0,1,10.49-3.54s1.69,8.9-4.83,13.28S247.14,445,247.14,445Z" style="opacity:0.1"></path><path d="M256.58,446.81c-4,2.68-6.63,1.4-8.08,0,2.15-8.34,12.91-13.29,12.91-13.29S263.1,442.43,256.58,446.81Z" style="opacity:0.1"></path><path d="M247.33,442.64s-2.19-3.08-5-3a7.57,7.57,0,0,0-1.92,5.23,6.92,6.92,0,0,0-5.69,2.41,6.4,6.4,0,0,0,4.46,3.75,8.5,8.5,0,0,0,1.19,6.15s5.28-.45,6.42-5.09c0,0,2.4,2.58,7.55.72a5.51,5.51,0,0,0-2.94-6s3-2.42,2.09-5.52A8.31,8.31,0,0,0,247.33,442.64Z" style="fill:#fafafa"></path><path d="M244.68,445.08a3.88,3.88,0,0,0-3.2,3.75s.63,1.95,4.09,1.17,3.33-2.93,3.33-2.93A3.47,3.47,0,0,0,244.68,445.08Z" style="fill:#ffa8a7"></path><path d="M214,439.08s-1.06-3-3-2-1.27,2.95.46,3.37c0,0-3.71,1.24-2.66,3.22s4.24-.12,4.92-1.16c0,0,.72,3,3.3,1.92s0-3.69,0-3.69,4-1.58,1.79-3.37S214,439.08,214,439.08Z" style="fill:#fafafa"></path><path d="M195.57,433.69s-1.62-1.48-4.67.33a8.4,8.4,0,0,0-3.79,4.52s4.09,2.56,7.52.18S195.57,433.69,195.57,433.69Z" style="fill:#92E3A9"></path><path d="M195.57,433.69s-1.62-1.48-4.67.33a8.4,8.4,0,0,0-3.79,4.52s4.09,2.56,7.52.18S195.57,433.69,195.57,433.69Z" style="opacity:0.1"></path><path d="M194.63,438.72c2.11-1.46,2-3,1.58-4-4.56-.55-9.1,3.83-9.1,3.83S191.2,441.1,194.63,438.72Z" style="opacity:0.1"></path><path d="M198.76,431.54s.86-2-1.85-4.31a8.39,8.39,0,0,0-5.51-2.1s-1.08,4.71,2.3,7.17S198.76,431.54,198.76,431.54Z" style="fill:#92E3A9"></path><path d="M198.76,431.54s.86-2-1.85-4.31a8.39,8.39,0,0,0-5.51-2.1s-1.08,4.71,2.3,7.17S198.76,431.54,198.76,431.54Z" style="opacity:0.1"></path><path d="M193.7,432.3c2.07,1.51,3.5.88,4.3.17-1-4.48-6.6-7.34-6.6-7.34S190.32,429.84,193.7,432.3Z" style="opacity:0.1"></path><path d="M197.11,432.21s2.06-3.72,3.6-2.26-.81,3.39-.81,3.39,2.91.85,1.78,2.36-3.69.05-3.69.05-.24,3-2.18,2.2-.61-3.44-.61-3.44-2.78.07-2.78-1.71S195.57,430.75,197.11,432.21Z" style="fill:#fafafa"></path><path d="M355.28,412s1.78-1.29,4.61.84a8.37,8.37,0,0,1,3.27,4.91s-4.34,2.1-7.49-.65S355.28,412,355.28,412Z" style="fill:#92E3A9"></path><path d="M355.28,412s1.78-1.29,4.61.84a8.37,8.37,0,0,1,3.27,4.91s-4.34,2.1-7.49-.65S355.28,412,355.28,412Z" style="opacity:0.1"></path><path d="M355.67,417.11c-1.94-1.68-1.64-3.22-1.13-4.15,4.59,0,8.62,4.8,8.62,4.8S358.82,419.86,355.67,417.11Z" style="opacity:0.1"></path><path d="M351.2,412.15s-1.38-1.7.6-4.64a8.46,8.46,0,0,1,4.73-3.53s2.33,4.23-.25,7.52S351.2,412.15,351.2,412.15Z" style="fill:#92E3A9"></path><path d="M351.2,412.15s-1.38-1.7.6-4.64a8.46,8.46,0,0,1,4.73-3.53s2.33,4.23-.25,7.52S351.2,412.15,351.2,412.15Z" style="opacity:0.1"></path><path d="M356.28,411.51c-1.58,2-3.13,1.8-4.09,1.33-.29-4.57,4.34-8.86,4.34-8.86S358.86,408.21,356.28,411.51Z" style="opacity:0.1"></path><path d="M352.13,411.86s-1.06-3-3-2-1.27,2.95.46,3.37c0,0-3.71,1.24-2.65,3.22s4.23-.12,4.91-1.16c0,0,.72,3,3.3,1.92s0-3.69,0-3.69,4-1.58,1.79-3.38S352.13,411.86,352.13,411.86Z" style="fill:#fafafa"></path><path d="M302.26,417.24s1.53-1.57-.17-4.68a8.42,8.42,0,0,0-4.38-3.95s-2.71,4-.44,7.52S302.26,417.24,302.26,417.24Z" style="fill:#92E3A9"></path><path d="M302.26,417.24s1.53-1.57-.17-4.68a8.42,8.42,0,0,0-4.38-3.95s-2.71,4-.44,7.52S302.26,417.24,302.26,417.24Z" style="opacity:0.1"></path><path d="M297.27,416.13c1.39,2.15,3,2.08,4,1.7.71-4.53-3.51-9.22-3.51-9.22S295,412.61,297.27,416.13Z" style="opacity:0.1"></path><path d="M306.86,417s-.71-3.27,4-5.92a12.82,12.82,0,0,1,8.85-1.57s.27,7.35-5.49,10.08S306.86,417,306.86,417Z" style="fill:#92E3A9"></path><path d="M306.86,417s-.71-3.27,4-5.92a12.82,12.82,0,0,1,8.85-1.57s.27,7.35-5.49,10.08S306.86,417,306.86,417Z" style="opacity:0.1"></path><path d="M314.22,419.62c-3.54,1.66-5.5.31-6.49-1,2.74-6.44,12-9.1,12-9.1S320,416.89,314.22,419.62Z" style="opacity:0.1"></path><path d="M302.79,424.74s-5.11,2.28-4,7.27,7,8.53,7,8.53,5.11-4.9,3.24-10.6A7.61,7.61,0,0,0,302.79,424.74Z" style="fill:#92E3A9"></path><path d="M302.79,424.74s-5.11,2.28-4,7.27,7,8.53,7,8.53,5.11-4.9,3.24-10.6A7.61,7.61,0,0,0,302.79,424.74Z" style="opacity:0.1"></path><path d="M298.84,432c1.13,4.89,7,8.53,7,8.53,1.8-6.62-3.08-15.8-3.08-15.8S297.68,427,298.84,432Z" style="opacity:0.1"></path><path d="M301.56,417.08s1.64-3.4,4.38-3.81a7.54,7.54,0,0,1,2.76,4.84,7,7,0,0,1,6,1.43,6.42,6.42,0,0,1-3.78,4.44,8.48,8.48,0,0,1-.15,6.26s-5.28.44-7.18-3.95c0,0-1.93,2.94-7.33,2a5.51,5.51,0,0,1,1.91-6.42s-3.34-1.89-3-5.1A8.33,8.33,0,0,1,301.56,417.08Z" style="fill:#fafafa"></path><path d="M304.58,419.05a3.87,3.87,0,0,1,3.77,3.16s-.29,2-3.83,1.83-3.78-2.32-3.78-2.32A3.47,3.47,0,0,1,304.58,419.05Z" style="fill:#ffa8a7"></path><path d="M326.39,395.75s-.63-2.91,3.57-5.27a11.42,11.42,0,0,1,7.88-1.4s.25,6.55-4.89,9S326.39,395.75,326.39,395.75Z" style="fill:#92E3A9"></path><path d="M326.39,395.75s-.63-2.91,3.57-5.27a11.42,11.42,0,0,1,7.88-1.4s.25,6.55-4.89,9S326.39,395.75,326.39,395.75Z" style="opacity:0.1"></path><path d="M333,398.05c-3.15,1.49-4.9.29-5.78-.87,2.44-5.73,10.67-8.1,10.67-8.1S338.09,395.63,333,398.05Z" style="opacity:0.1"></path><path d="M327.71,400.7s-2,4.17,1.37,6.7,9,1.64,9,1.64.62-5.82-3.59-8.42A6.28,6.28,0,0,0,327.71,400.7Z" style="fill:#92E3A9"></path><path d="M327.71,400.7s-2,4.17,1.37,6.7,9,1.64,9,1.64.62-5.82-3.59-8.42A6.28,6.28,0,0,0,327.71,400.7Z" style="opacity:0.1"></path><path d="M329.08,407.4c3.33,2.48,9,1.64,9,1.64-2.39-5.14-10.35-8.34-10.35-8.34S325.7,404.87,329.08,407.4Z" style="opacity:0.1"></path><path d="M323,395.45s1.05-2.81,3.18-3.34a6,6,0,0,1,2.54,3.63,5.52,5.52,0,0,1,4.87.67,5.1,5.1,0,0,1-2.66,3.79,6.82,6.82,0,0,1,.35,5s-4.15.73-6-2.6c0,0-1.31,2.47-5.65,2.1a4.38,4.38,0,0,1,1-5.22s-2.78-1.24-2.73-3.8A6.56,6.56,0,0,1,323,395.45Z" style="fill:#fafafa"></path><path d="M325.53,396.78a3.08,3.08,0,0,1,3.22,2.22s-.08,1.63-2.89,1.73-3.16-1.56-3.16-1.56A2.76,2.76,0,0,1,325.53,396.78Z" style="fill:#ffa8a7"></path><path d="M302.19,399.29s-.21-2.18,3.06-3.55a8.38,8.38,0,0,1,5.88-.35s-.37,4.81-4.34,6.15S302.19,399.29,302.19,399.29Z" style="fill:#92E3A9"></path><path d="M302.19,399.29s-.21-2.18,3.06-3.55a8.38,8.38,0,0,1,5.88-.35s-.37,4.81-4.34,6.15S302.19,399.29,302.19,399.29Z" style="opacity:0.1"></path><path d="M306.79,401.54c-2.43.81-3.61-.21-4.15-1.13,2.27-4,8.49-5,8.49-5S310.76,400.2,306.79,401.54Z" style="opacity:0.1"></path><path d="M300.54,398.19s1-3,3-2,1.32,2.93-.41,3.37c0,0,3.73,1.18,2.71,3.18s-4.24-.05-4.94-1.09c0,0-.67,3.05-3.27,2s0-3.69,0-3.69-4-1.51-1.84-3.34S300.54,398.19,300.54,398.19Z" style="fill:#fafafa"></path><path d="M332.22,419.16s1.77-1.29,4.61.84a8.4,8.4,0,0,1,3.27,4.9s-4.34,2.11-7.5-.64S332.22,419.16,332.22,419.16Z" style="fill:#92E3A9"></path><path d="M332.22,419.16s1.77-1.29,4.61.84a8.4,8.4,0,0,1,3.27,4.9s-4.34,2.11-7.5-.64S332.22,419.16,332.22,419.16Z" style="opacity:0.1"></path><path d="M332.6,424.26c-1.93-1.68-1.64-3.22-1.12-4.16,4.59,0,8.62,4.8,8.62,4.8S335.76,427,332.6,424.26Z" style="opacity:0.1"></path><path d="M329.16,416.63s-.09-2.2,3.26-3.38a8.38,8.38,0,0,1,5.89,0s-.65,4.78-4.68,5.89S329.16,416.63,329.16,416.63Z" style="fill:#92E3A9"></path><path d="M329.16,416.63s-.09-2.2,3.26-3.38a8.38,8.38,0,0,1,5.89,0s-.65,4.78-4.68,5.89S329.16,416.63,329.16,416.63Z" style="opacity:0.1"></path><path d="M333.63,419.13c-2.48.68-3.59-.42-4.09-1.36,2.5-3.85,8.77-4.53,8.77-4.53S337.66,418,333.63,419.13Z" style="opacity:0.1"></path><path d="M330.19,418s-1.91-3.8-3.51-2.41.67,3.42.67,3.42-2.94.73-1.87,2.28,3.68.21,3.68.21.11,3,2.08,2.28.76-3.4.76-3.4,2.77.19,2.84-1.59S331.79,416.59,330.19,418Z" style="fill:#fafafa"></path><path d="M245.85,406.75s-1.19-4.09-3-3,0,3.49,0,3.49-3,.19-2.25,1.91,3.58.87,3.58.87-.44,3,1.64,2.62,1.35-3.22,1.35-3.22,2.7.69,3.09-1.05S247.68,405.67,245.85,406.75Z" style="fill:#fafafa"></path><path d="M284.28,447.58s-2.93-1.56-6.74,2.23a12.71,12.71,0,0,0-3.89,8s7,2.26,11.12-2.53S284.28,447.58,284.28,447.58Z" style="fill:#92E3A9"></path><path d="M284.28,447.58s-2.93-1.56-6.74,2.23a12.71,12.71,0,0,0-3.89,8s7,2.26,11.12-2.53S284.28,447.58,284.28,447.58Z" style="opacity:0.1"></path><path d="M284.77,455.32c2.55-2.93,1.79-5.17.82-6.47-6.9.88-11.94,9-11.94,9S280.61,460.11,284.77,455.32Z" style="opacity:0.1"></path><path d="M285,440.71s.75-2.06-2.08-4.19a8.41,8.41,0,0,0-5.62-1.8s-.82,4.76,2.69,7S285,440.71,285,440.71Z" style="fill:#92E3A9"></path><path d="M285,440.71s.75-2.06-2.08-4.19a8.41,8.41,0,0,0-5.62-1.8s-.82,4.76,2.69,7S285,440.71,285,440.71Z" style="opacity:0.1"></path><path d="M280,441.75c2.15,1.4,3.55.69,4.3-.06-1.21-4.43-7-7-7-7S276.46,439.48,280,441.75Z" style="opacity:0.1"></path><path d="M290.83,446s-1.95,4.87,2.08,7.47,10.3,1.16,10.3,1.16.25-6.63-4.73-9.26A7.13,7.13,0,0,0,290.83,446Z" style="fill:#92E3A9"></path><path d="M290.83,446s-1.95,4.87,2.08,7.47,10.3,1.16,10.3,1.16.25-6.63-4.73-9.26A7.13,7.13,0,0,0,290.83,446Z" style="opacity:0.1"></path><path d="M292.91,453.43c4,2.56,10.3,1.16,10.3,1.16C300.1,449,290.83,446,290.83,446S288.88,450.83,292.91,453.43Z" style="opacity:0.1"></path><path d="M289.58,442.22s-.26-3.3-2.87-3.64c0,0-2.13-.33-3.28,3,0,0-2.61-1.27-6.14.76a3.83,3.83,0,0,0,2.87,4.24s-2,1.55-1,5.2c0,0,5.33,1.73,6.61-1.59,0,0,.49,2.95,5.69,2.91a5,5,0,0,0-.05-5.91s3.67-.15,4.24-2.87C295.63,444.3,293.11,440.19,289.58,442.22Z" style="fill:#fafafa"></path><path d="M286.39,442.78a3.63,3.63,0,0,0-3.91,2.46s0,1.93,3.34,2.19,3.8-1.69,3.8-1.69A3.25,3.25,0,0,0,286.39,442.78Z" style="fill:#ffa8a7"></path><path d="M334.4,434.36s-.07-3.31-5.22-4.77a12.68,12.68,0,0,0-8.88.54s1.44,7.14,7.62,8.42S334.4,434.36,334.4,434.36Z" style="fill:#92E3A9"></path><path d="M334.4,434.36s-.07-3.31-5.22-4.77a12.68,12.68,0,0,0-8.88.54s1.44,7.14,7.62,8.42S334.4,434.36,334.4,434.36Z" style="opacity:0.1"></path><path d="M327.92,438.55c3.79.79,5.36-1,6-2.44-4.13-5.56-13.64-6-13.64-6S321.74,437.27,327.92,438.55Z" style="opacity:0.1"></path><path d="M339,435.34S338.52,433,342,431a9.31,9.31,0,0,1,6.44-1.14s.2,5.34-4,7.32S339,435.34,339,435.34Z" style="fill:#92E3A9"></path><path d="M339,435.34S338.52,433,342,431a9.31,9.31,0,0,1,6.44-1.14s.2,5.34-4,7.32S339,435.34,339,435.34Z" style="opacity:0.1"></path><path d="M344.39,437.22c-2.57,1.22-4,.24-4.72-.71,2-4.68,8.72-6.61,8.72-6.61S348.59,435.24,344.39,437.22Z" style="opacity:0.1"></path><path d="M338,432.74s-1.18-2.35-3.09-2.6a5.23,5.23,0,0,0-1.87,3.39,4.84,4.84,0,0,0-4.17,1.06,4.47,4.47,0,0,0,2.68,3.05,5.92,5.92,0,0,0,.17,4.36s3.68.24,4.95-2.84c0,0,1.38,2,5.12,1.29a3.83,3.83,0,0,0-1.4-4.45s2.31-1.35,2-3.58A5.79,5.79,0,0,0,338,432.74Z" style="fill:#fafafa"></path><path d="M336,434.14a2.7,2.7,0,0,0-2.59,2.24s.23,1.41,2.69,1.23,2.6-1.66,2.6-1.66A2.42,2.42,0,0,0,336,434.14Z" style="fill:#ffa8a7"></path><path d="M284.76,427.67s-.74-2.09-2.12-1.36-.88,2.05.32,2.34c0,0-2.58.86-1.85,2.24s2.95-.08,3.43-.81c0,0,.49,2.11,2.29,1.34s0-2.56,0-2.56,2.76-1.1,1.24-2.35S284.76,427.67,284.76,427.67Z" style="fill:#fafafa"></path><path d="M266.9,451s1-2.79,2.22-2-.17,2.41-.17,2.41,2.09.26,1.49,1.42-2.53.46-2.53.46.19,2.1-1.24,1.75-.81-2.28-.81-2.28-1.9.37-2.1-.86S265.68,450.15,266.9,451Z" style="fill:#fafafa"></path><path d="M315.66,444.21s.28-3.18-2-3-2.38,2.16-1,3.26c0,0-3.89-.41-3.75,1.83s3.9,1.64,5,1c0,0-.61,3.07,2.21,3.12s1.49-3.37,1.49-3.37,4.27.2,3-2.34S315.66,444.21,315.66,444.21Z" style="fill:#fafafa"></path></g></g><g id="freepik--Clouds--inject-1--inject-8"><g id="freepik--clouds--inject-1--inject-8"><path d="M296.15,77l7.7,4.45a8.89,8.89,0,0,1-.07-1V78.24c0-4,2.79-5.58,6.23-3.6a12.19,12.19,0,0,1,3.71,3.57c.56-5,4.48-6.85,9.24-4.1,5.14,3,9.31,10.19,9.31,16.13v3.34a8.66,8.66,0,0,1-.79,3.86l6.4,3.7a7.62,7.62,0,0,1,3.45,6c0,2.2-1.54,3.09-3.45,2L296.15,85a7.63,7.63,0,0,1-3.46-6C292.69,76.84,294.24,75.94,296.15,77Z" style="fill:#ebebeb"></path><path d="M347.06,56.59l4.24,1.63V48.86c0-7.42,5.92-9.19,12.35-5.49h0c6.42,3.71,11.63,12.74,11.63,20.15v1.36c1.46-.58,3.34-.35,5.4.84h0c4.62,2.66,8.37,9.16,8.37,14.49v.62L395,84.25a12.19,12.19,0,0,1,5.52,9.55c0,3.52-2.47,4.94-5.52,3.18L347.06,69.32a12.18,12.18,0,0,1-5.52-9.55C341.54,56.25,344,54.83,347.06,56.59Z" style="fill:#ebebeb"></path></g></g><g id="freepik--Wheelbarrow--inject-1--inject-8"><g id="freepik--wheelbarrow--inject-1--inject-8"><path d="M272.21,148.91h0a1.72,1.72,0,0,0-1.75.17,5.42,5.42,0,0,0-2.46,4.26,1.71,1.71,0,0,0,.74,1.6h0l15.68,9,3.47-6Z" style="fill:#92E3A9"></path><path d="M287.49,155.66a2.59,2.59,0,0,0-2.58.25,8.16,8.16,0,0,0-3.69,6.39,2.58,2.58,0,0,0,1,2.33c.09.06,1,.58,1.15.63a2.6,2.6,0,0,0,2.48-.29,8.15,8.15,0,0,0,3.68-6.39,2.61,2.61,0,0,0-1-2.32Z" style="fill:#92E3A9"></path><path d="M287.49,155.66a2.59,2.59,0,0,0-2.58.25,8.16,8.16,0,0,0-3.69,6.39,2.58,2.58,0,0,0,1,2.33c.09.06,1,.58,1.15.63a2.6,2.6,0,0,0,2.48-.29,8.15,8.15,0,0,0,3.68-6.39,2.61,2.61,0,0,0-1-2.32Z" style="opacity:0.15"></path><path d="M282.25,162.84a8.11,8.11,0,0,1,3.67-6.36c2-1.17,3.66-.22,3.66,2.12a8.13,8.13,0,0,1-3.66,6.36C283.89,166.13,282.25,165.18,282.25,162.84Z" style="fill:#92E3A9"></path><path d="M438.38,334.35a1.2,1.2,0,0,1-.65-.19l-78.54-50.38a1.2,1.2,0,0,1-.54-.81l-8.8-50.79a11.3,11.3,0,0,0-2.46-5.3L300,170.33l-14.6-8.43c-.58-.33.63-2.44,1.21-2.1l14.79,8.54a1.09,1.09,0,0,1,.33.27l47.48,56.71a13.68,13.68,0,0,1,3,6.45L361,282,439,332.12a1.22,1.22,0,0,1,.36,1.68A1.2,1.2,0,0,1,438.38,334.35Z" style="fill:#e0e0e0"></path><rect x="420.65" y="279.6" width="2.43" height="54.27" transform="translate(-94.55 233.46) rotate(-27.94)" style="fill:#e0e0e0"></rect><path d="M390.55,318.43l-4.43-8.79,10.54-6.1h0c3.35-1.93,7.81-1.71,12.71,1.12,10.41,6,18.85,21.5,18.85,34.61,0,6.87-2.32,11.71-6,13.91h0l-.15.08h0l-10.8,6.24-4.68-9.28C397.72,343.47,390.89,330.13,390.55,318.43Z" style="fill:#37474f"></path><path d="M390.55,318.43l-4.43-8.79,10.54-6.1h0c3.35-1.93,7.81-1.71,12.71,1.12,10.41,6,18.85,21.5,18.85,34.61,0,6.87-2.32,11.71-6,13.91h0l-.15.08h0l-10.8,6.24-4.68-9.28C397.72,343.47,390.89,330.13,390.55,318.43Z" style="fill:#263238"></path><path d="M379.57,323.84c0,11.3,6.27,24.39,14.67,31.62l0,0a27.59,27.59,0,0,0,4.13,3c10.41,6,18.85.25,18.84-12.86,0-9.9-4.81-21.18-11.65-28.68l-.06-.06a30.25,30.25,0,0,0-7.13-5.87C388,305,379.57,310.74,379.57,323.84Z" style="fill:#37474f"></path><path d="M398.41,318.9c-6.62-3.82-12,.16-12,8.9s5.37,18.92,12,22.75,12-.16,12-8.9S405,322.72,398.41,318.9Z" style="fill:#455a64"></path><path d="M393,332.31c.46,4.34,3.26,8.95,6.25,10.28a2.92,2.92,0,0,0,3.26-.27c1.05-.9,1.58-2.74,1.33-5.18-.46-4.35-3.25-8.95-6.24-10.29a3.39,3.39,0,0,0-2.2-.28h0C393.67,327,392.66,329.14,393,332.31Z" style="fill:#fafafa"></path><path d="M394.06,331.74c.46,4.35,3.26,9,6.24,10.29a3.39,3.39,0,0,0,2.2.29c1.05-.9,1.58-2.74,1.33-5.18-.46-4.35-3.25-8.95-6.24-10.29a3.39,3.39,0,0,0-2.2-.28h0C394.34,327.47,393.81,329.31,394.06,331.74Z" style="fill:#f0f0f0"></path><path d="M379.57,323.84c0,11.3,6.27,24.39,14.67,31.62a53.45,53.45,0,0,1-11.95-23.12c-1.59-7.56-1-18.41,5.49-21.15s15.05,3,17.76,5.67a30.25,30.25,0,0,0-7.13-5.87C388,305,379.57,310.74,379.57,323.84Z" style="fill:#455a64"></path><path d="M212.56,182.79h0a1.72,1.72,0,0,0-1.75.17,5.42,5.42,0,0,0-2.46,4.26,1.7,1.7,0,0,0,.74,1.6h0l15.68,9,3.47-6Z" style="fill:#92E3A9"></path><path d="M227.84,189.55a2.54,2.54,0,0,0-2.58.25,8.14,8.14,0,0,0-3.68,6.38,2.59,2.59,0,0,0,1,2.34l1.15.63a2.64,2.64,0,0,0,2.48-.3,8.14,8.14,0,0,0,3.69-6.38,2.6,2.6,0,0,0-1-2.32C228.82,190.08,227.92,189.6,227.84,189.55Z" style="fill:#92E3A9"></path><path d="M227.84,189.55a2.54,2.54,0,0,0-2.58.25,8.14,8.14,0,0,0-3.68,6.38,2.59,2.59,0,0,0,1,2.34l1.15.63a2.64,2.64,0,0,0,2.48-.3,8.14,8.14,0,0,0,3.69-6.38,2.6,2.6,0,0,0-1-2.32C228.82,190.08,227.92,189.6,227.84,189.55Z" style="opacity:0.15"></path><path d="M222.6,196.72a8.09,8.09,0,0,1,3.67-6.35c2-1.17,3.67-.23,3.67,2.11a8.14,8.14,0,0,1-3.67,6.36C224.24,200,222.6,199.06,222.6,196.72Z" style="fill:#92E3A9"></path><path d="M428.45,349a24.29,24.29,0,0,1-10.92-2.43L341,307a6.23,6.23,0,0,0-8.27,2.43l-5.17,8.94c-3.68,6.38-11.57,8.74-17.59,5.27s-11.35-11.73-12.67-19.36l-6.72-38.79a11.25,11.25,0,0,0-2.49-5.34L242.15,206a11.33,11.33,0,0,0-3-2.47l-12.92-7.46c-.58-.33.64-2.43,1.22-2.1l12.91,7.46a13.68,13.68,0,0,1,3.6,3l45.9,54.19a13.75,13.75,0,0,1,3,6.5l6.72,38.79c1.19,6.87,6.23,14.63,11.49,17.66,4.86,2.81,11.26.84,14.27-4.37l5.16-8.95a8.67,8.67,0,0,1,11.49-3.36l76.58,39.55c5.62,2.91,14.36,2.86,19.48-.09,2.13-1.24,3.33-2.89,3.37-4.65.05-1.94-1.33-4-3.77-5.53a1.21,1.21,0,1,1,1.31-2c3.17,2,5,4.82,4.89,7.63-.06,2.64-1.69,5-4.59,6.69A22.22,22.22,0,0,1,428.45,349Z" style="fill:#e0e0e0"></path><rect x="397.67" y="292.87" width="2.43" height="54.27" transform="translate(-108.97 260.02) rotate(-32)" style="fill:#e0e0e0"></rect><path d="M448.6,248.6l-19.51,24.77a45.84,45.84,0,0,1-5.57,5.68l-86.77-60.11a12.43,12.43,0,0,0-6.47-2.2h0V191.66Z" style="fill:#92E3A9"></path><path d="M448.6,248.6l-19.51,24.77a45.84,45.84,0,0,1-5.57,5.68l-86.77-60.11a12.43,12.43,0,0,0-6.47-2.2h0V191.66Z" style="opacity:0.25"></path><path d="M330.28,216.74a12.43,12.43,0,0,0-6.85,1.65l-45,26a26.44,26.44,0,0,1-2.39-10V223l54.23-31.32Z" style="fill:#92E3A9"></path><path d="M330.28,216.74a12.43,12.43,0,0,0-6.85,1.65l-45,26a26.44,26.44,0,0,1-2.39-10V223l54.23-31.32Z" style="opacity:0.30000000000000004"></path><path d="M336.75,218.94a12.44,12.44,0,0,0-13.32-.55l-45,26a29.88,29.88,0,0,0,6.46,9.69l55.85,52.4a26.2,26.2,0,0,0,31,3.58l45-26a45.86,45.86,0,0,0,6.79-5Z" style="fill:#92E3A9"></path><path d="M336.75,218.94a12.44,12.44,0,0,0-13.32-.55l-45,26a29.88,29.88,0,0,0,6.46,9.69l55.85,52.4a26.2,26.2,0,0,0,31,3.58l45-26a45.86,45.86,0,0,0,6.79-5Z" style="opacity:0.1"></path><path d="M276,223v11.5c.05,6.28,4,15,8.85,19.58l55.85,52.4a26.17,26.17,0,0,0,18.51,7.07l15.4-22.23Z" style="fill:#92E3A9"></path><path d="M276,223v11.5c.05,6.28,4,15,8.85,19.58l55.85,52.4a26.17,26.17,0,0,0,18.51,7.07l15.4-22.23Z" style="opacity:0.35000000000000003"></path><path d="M374.64,291.3l-15.4,22.23A26.06,26.06,0,0,0,371.76,310l45-26a51.91,51.91,0,0,0,12.37-10.71l19.5-24.77Z" style="fill:#92E3A9"></path><path d="M374.64,291.3l-15.4,22.23A26.06,26.06,0,0,0,371.76,310l45-26a51.91,51.91,0,0,0,12.37-10.71l19.5-24.77Z" style="opacity:0.45"></path><path d="M447.43,243.21,335.72,188.64A12.77,12.77,0,0,0,325,189l-49,28.31c-5.39,3.11-5.6,8.53-.45,12l94.1,64.21a10.55,10.55,0,0,0,10.27.39l67.94-39.22C453.67,251.36,453.5,246.18,447.43,243.21Zm-4.09,8.43-63.45,36.63a10.44,10.44,0,0,1-10.24-.43L281,226.44c-2.75-1.91-2.63-4.82.27-6.49L325,194.7a12.87,12.87,0,0,1,10.72-.4L443.13,246C446.15,247.42,446.24,250,443.34,251.64Z" style="fill:#92E3A9"></path><path d="M447.43,243.21,335.72,188.64A12.77,12.77,0,0,0,325,189l-49,28.31c-5.39,3.11-5.6,8.53-.45,12l94.1,64.21a10.55,10.55,0,0,0,10.27.39l67.94-39.22C453.67,251.36,453.5,246.18,447.43,243.21Zm-4.09,8.43-63.45,36.63a10.44,10.44,0,0,1-10.24-.43L281,226.44c-2.75-1.91-2.63-4.82.27-6.49L325,194.7a12.87,12.87,0,0,1,10.72-.4L443.13,246C446.15,247.42,446.24,250,443.34,251.64Z" style="opacity:0.15"></path><path d="M429.29,249.78a8.31,8.31,0,0,0-6.84,3.58A20.79,20.79,0,0,0,408,244.44a8.33,8.33,0,0,0-13.86-5.15,20.77,20.77,0,0,0-35.44,3.09,5,5,0,0,0-1.51-2,5.07,5.07,0,0,0-7.12.86,5,5,0,0,0-1.05,3.27,21,21,0,0,0-4.91-.58,20.72,20.72,0,0,0-16.49,8.15,5.05,5.05,0,0,0-8.78-1.48,4.61,4.61,0,0,0-.79,1.5l51.57,35.73a10.44,10.44,0,0,0,10.24.43l57.21-33A8.31,8.31,0,0,0,429.29,249.78Z" style="fill:#b16668"></path><path d="M367.16,258.21a6.74,6.74,0,0,0-8.73-1.94,9.72,9.72,0,0,0-16.57,2.88,9.71,9.71,0,0,1,14.73-1.4,10.37,10.37,0,0,1,.94,1.05l.44-.35a7,7,0,0,1,1.43-.8,6.76,6.76,0,0,1,8,2.29,7,7,0,0,1,1,2.11A6.64,6.64,0,0,0,367.16,258.21Z" style="fill:#9a4a4d"></path><path d="M382.16,250.21a5.12,5.12,0,0,1,6.63-1.48,7.38,7.38,0,0,1,12.58,2.19,7.38,7.38,0,0,0-11.18-1.06,7.66,7.66,0,0,0-.71.8c-.11-.09-.22-.18-.35-.27a4.78,4.78,0,0,0-1.08-.6,5.13,5.13,0,0,0-6.87,3.34A5.12,5.12,0,0,1,382.16,250.21Z" style="fill:#9a4a4d"></path><path d="M372.77,272.16a5.13,5.13,0,0,1,6.63-1.48A7.39,7.39,0,0,1,392,272.87a7.38,7.38,0,0,0-11.19-1.06,7.79,7.79,0,0,0-.71.8,2.88,2.88,0,0,0-.34-.27,5.25,5.25,0,0,0-1.08-.61,5.14,5.14,0,0,0-6.09,1.74,5.06,5.06,0,0,0-.78,1.6A5,5,0,0,1,372.77,272.16Z" style="fill:#9a4a4d"></path><path d="M333.49,242.85s1-.65.73-1.46-1.6-.8-1.6-.8.2-.82-.86-1.57-2.31-.71-4.81.74a4.61,4.61,0,0,0-.67.47,6.69,6.69,0,0,0,1-1.73c.46-1.23,1.39-3.85-.12-5s-2.13-.14-2.13-.14-.32-1.13-1.16-1.14-1.25,1.27-1.25,1.27a1.62,1.62,0,0,0-1.77.33c-1.08.79-1.38,1.92-.55,4.69.24.8.54,1.62.85,2.39-.84-1.1-1.75-2.25-2.16-2.71-.89-1-3.06-2.78-4.6-1.7s-.78,2-.78,2-1.18,0-1.45.76.82,1.58.82,1.58a1.62,1.62,0,0,0-.23,1.78c.42,1.27,1.4,1.9,4.29,2,.77,0,1.59,0,2.37-.06-1.29.46-2.64.95-3.19,1.2-1.2.55-3.59,2.05-3,3.85s1.64,1.36,1.64,1.36-.4,1.11.28,1.61,1.76-.29,1.76-.29.32.78,1.62.77,2.24-.75,3.2-3.47c.28-.82.53-1.7.74-2.52,0,1.39.09,2.86.16,3.47.15,1.31.83,4.05,2.71,4.08s1.81-1.14,1.81-1.14.92.72,1.61.24.27-1.76.27-1.76.84-.07,1.23-1.31.08-2.62-2.22-4.37a4,4,0,0,0-.39-.29,9.65,9.65,0,0,0,1.81.43c1.45.13,4,.32,4.65-1.46S333.49,242.85,333.49,242.85Z" style="fill:#f0f0f0"></path><path d="M330.7,242.88c-1.08-.65-3.16-.58-4.35-.44-.86.11-2.66.36-3,1.39,0,.11.08.24.18.28,1,.39,2.2-.35,3.18-.58a26.39,26.39,0,0,1,3.87-.25A.21.21,0,0,0,330.7,242.88Z" style="fill:#e0e0e0"></path><path d="M322.53,244.13v0h-.14a.66.66,0,0,0,.2-.31.46.46,0,0,0,.43-.07c2-1.72,1.66-6,.62-8.07,0-.07-.31-.21-.3-.05a21.65,21.65,0,0,1-.24,4.32c-.17.94-.67,2.12-.79,3.12l-.3-.34a6.2,6.2,0,0,0-1.62-1.17c-1.48-.73-3.64-1.59-5.32-1.14-.19.05,0,.27.12.29a12.37,12.37,0,0,1,3.69,1.55,5.54,5.54,0,0,1,2.15,1.89.57.57,0,0,0,.49.31,14.88,14.88,0,0,0-2.57,1.92,5.06,5.06,0,0,0-1.77,3.1c0,.19.43.36.5.15.16-.51.78-1,1.14-1.41a10.8,10.8,0,0,1,1.7-1.61,11.66,11.66,0,0,1,1.3-.91l.46-.28h0l.14-.08a9.86,9.86,0,0,0,1.12,1.4,11.28,11.28,0,0,1,2.09,3.75c0,.14.39.29.41.08a7.79,7.79,0,0,0-1.08-4.38C324.64,245.51,323.64,243.37,322.53,244.13Z" style="fill:#e0e0e0"></path><path d="M324.59,243.91a1.85,1.85,0,1,1-1.85-1.85A1.85,1.85,0,0,1,324.59,243.91Z" style="fill:#92E3A9"></path><path d="M322.23,244.94a1.92,1.92,0,0,1-.52-2.57,1.85,1.85,0,1,0,2.6,2.5A1.94,1.94,0,0,1,322.23,244.94Z" style="opacity:0.05"></path><path d="M333.64,222s1-.39.93-1.15-1.25-1-1.25-1a1.48,1.48,0,0,0-.46-1.57c-.8-.9-1.9-1.07-4.4-.28a4.36,4.36,0,0,0-.68.28,6.29,6.29,0,0,0,1.19-1.34c.65-1,2-3.13.88-4.43s-1.86-.54-1.86-.54-.07-1.06-.81-1.24-1.35.88-1.35.88a1.47,1.47,0,0,0-1.63-.05c-1.11.48-1.59,1.42-1.41,4,.06.75.16,1.53.28,2.27-.53-1.14-1.1-2.33-1.38-2.82-.59-1-2.15-3.06-3.73-2.41s-1.08,1.6-1.08,1.6-1-.26-1.43.39.42,1.56.42,1.56-.68.35-.56,1.53.87,1.95,3.41,2.58c.68.17,1.41.31,2.1.42-1.23.15-2.51.32-3.05.43-1.17.25-3.58,1.11-3.45,2.8s1.19,1.53,1.19,1.53-.57.9-.07,1.48,1.61.09,1.61.09.13.75,1.28,1,2.13-.22,3.51-2.45c.41-.66.81-1.39,1.15-2.08-.24,1.24-.48,2.55-.54,3.11-.12,1.18-.06,3.74,1.6,4.14s1.82-.66,1.82-.66.68.82,1.38.53.58-1.51.58-1.51.76.11,1.35-.91.58-2.3-1.1-4.3l-.29-.33a8.68,8.68,0,0,0,1.51.74c1.26.39,3.51,1.07,4.4-.38S333.64,222,333.64,222Z" style="fill:#f0f0f0"></path><path d="M331.17,221.46a7.26,7.26,0,0,0-3.76-1.24c-.79-.08-2.43-.21-2.92.64-.05.09,0,.23.11.28.79.54,2,.13,2.93.12a22.75,22.75,0,0,1,3.47.54A.2.2,0,0,0,331.17,221.46Z" style="fill:#e0e0e0"></path><path d="M323.7,221h-.14a.91.91,0,0,0,.24-.24.42.42,0,0,0,.39,0c2.1-1.13,2.64-4.95,2.13-7,0-.07-.23-.24-.25-.11A19.13,19.13,0,0,1,325,217.4c-.33.8-1,1.75-1.31,2.61a3.35,3.35,0,0,0-.21-.36,5.56,5.56,0,0,0-1.2-1.36c-1.16-.93-2.9-2.12-4.48-2-.17,0,0,.24.06.28a11.36,11.36,0,0,1,2.95,2.09,5,5,0,0,1,1.53,2.1.51.51,0,0,0,.37.37,13.91,13.91,0,0,0-2.65,1.19,4.64,4.64,0,0,0-2.17,2.39c0,.17.31.41.41.24.25-.43.89-.71,1.28-1a9.94,9.94,0,0,1,1.83-1.09,9.5,9.5,0,0,1,1.33-.54l.46-.16h0l.14,0a10,10,0,0,0,.71,1.46,10,10,0,0,1,1.11,3.72c0,.14.29.33.35.15a7,7,0,0,0-.09-4.08C325.29,222.59,324.83,220.5,323.7,221Z" style="fill:#e0e0e0"></path><path d="M325.56,221.17a1.68,1.68,0,1,1-1.27-2A1.68,1.68,0,0,1,325.56,221.17Z" style="fill:#92E3A9"></path><path d="M323.27,221.62a1.74,1.74,0,0,1,.05-2.38,1.68,1.68,0,1,0,1.81,2.73A1.77,1.77,0,0,1,323.27,221.62Z" style="opacity:0.05"></path><path d="M352,226.88s.58-1.2-.12-1.85-2,.12-2,.12-.27-.92-1.75-1.06-2.67.63-4.31,3.48a6.33,6.33,0,0,0-.4.84,7.7,7.7,0,0,0,0-2.25c-.25-1.48-.84-4.58-3-4.84s-2.18,1.08-2.18,1.08-1-.92-1.8-.46-.5,2-.5,2-1,0-1.56,1.33-.25,2.68,2.14,4.93c.69.65,1.46,1.29,2.2,1.87-1.46-.6-3-1.23-3.68-1.43-1.42-.45-4.59-1-5.49.94s.36,2.4.36,2.4-1.18.63-1,1.57,1.71,1.09,1.71,1.09-.32.9.79,1.89,2.47,1.07,5.35-.51c.77-.43,1.56-.92,2.3-1.41-1,1.19-2.06,2.44-2.45,3-.87,1.22-2.37,4.07-.81,5.52s2.4.4,2.4.4.23,1.32,1.19,1.43,1.56-1.29,1.56-1.29a1.83,1.83,0,0,0,2-.16c1.31-.77,1.78-2,1.17-5.25-.19-1-.44-2-.71-2.9.83,1.35,1.72,2.77,2.14,3.33.89,1.2,3.13,3.51,5,2.47s1.12-2.16,1.12-2.16,1.33.19,1.73-.68-.74-1.89-.74-1.89a1.83,1.83,0,0,0,.47-2c-.33-1.48-1.42-2.62-4.68-3l-.55-.06a10.71,10.71,0,0,0,2-.6c1.5-.7,4.16-2,3.74-4.1S352,226.88,352,226.88Z" style="fill:#f0f0f0"></path><path d="M349.23,228.5c-1.43,0-3.45,1.23-4.53,2.05-.79.6-2.42,1.87-2.15,3.07,0,.13.22.18.34.17,1.18-.18,2-1.6,2.81-2.39a30.31,30.31,0,0,1,3.66-2.45A.24.24,0,0,0,349.23,228.5Z" style="fill:#e0e0e0"></path><path d="M341.9,234.39v0l-.13.09a.86.86,0,0,0,0-.42.52.52,0,0,0,.38-.3c1-2.84-1.77-6.83-4-8.31-.07-.05-.41,0-.32.12a24.15,24.15,0,0,1,2.23,4.39c.37,1,.55,2.48,1,3.53a3.66,3.66,0,0,0-.5-.16,6.65,6.65,0,0,0-2.26-.23c-1.87.13-4.48.51-5.89,1.91-.16.16.19.24.29.21a14.67,14.67,0,0,1,4.51-.58,6.48,6.48,0,0,1,3.2.64.65.65,0,0,0,.66,0,16.76,16.76,0,0,0-1.44,3.35,5.79,5.79,0,0,0,0,4.06c.09.2.63.11.57-.13a6.42,6.42,0,0,1,.32-2,12.76,12.76,0,0,1,.76-2.56,13.43,13.43,0,0,1,.76-1.63c.11-.18.2-.36.3-.55v0l.1-.15a11.8,11.8,0,0,0,1.89.74,12.77,12.77,0,0,1,4.2,2.5c.11.12.54.06.45-.16a8.88,8.88,0,0,0-3.56-3.7C344.76,234.55,342.55,233,341.9,234.39Z" style="fill:#e0e0e0"></path><path d="M343.8,233a2.11,2.11,0,1,1-2.88-.77A2.11,2.11,0,0,1,343.8,233Z" style="fill:#92E3A9"></path><path d="M342.06,235.36a2.19,2.19,0,0,1-2-2.23,2.14,2.14,0,0,0,.07,2,2.11,2.11,0,0,0,3.93-1A2.22,2.22,0,0,1,342.06,235.36Z" style="opacity:0.05"></path><path d="M317.3,232.41s1.26-.42,1.24-1.38-1.51-1.36-1.51-1.36a1.84,1.84,0,0,0-.47-2c-1-1.18-2.32-1.47-5.51-.63a5.49,5.49,0,0,0-.87.31,7.49,7.49,0,0,0,1.57-1.61c.88-1.21,2.69-3.81,1.38-5.5s-2.3-.79-2.3-.79,0-1.34-.94-1.61-1.75,1-1.75,1a1.84,1.84,0,0,0-2-.17c-1.42.54-2.09,1.69-2,5,0,.95.1,1.94.21,2.88-.6-1.46-1.24-3-1.56-3.63-.68-1.33-2.51-4-4.53-3.25s-1.46,1.94-1.46,1.94-1.28-.4-1.82.39.43,2,.43,2-.87.4-.79,1.88,1,2.51,4.11,3.46c.85.25,1.75.46,2.62.65-1.56.11-3.18.24-3.86.35-1.48.24-4.56,1.17-4.5,3.3s1.4,2,1.4,2-.78,1.09-.19,1.85,2,.21,2,.21.11.95,1.55,1.34,2.68-.15,4.55-2.85c.56-.81,1.1-1.7,1.58-2.54-.38,1.54-.77,3.17-.88,3.86-.23,1.48-.3,4.7,1.75,5.3s2.33-.71,2.33-.71.79,1.07,1.7.75.82-1.86.82-1.86.94.19,1.75-1.06.87-2.85-1.12-5.47l-.34-.43a10.19,10.19,0,0,0,1.85,1c1.55.58,4.34,1.57,5.55-.2S317.3,232.41,317.3,232.41Z" style="fill:#f0f0f0"></path><path d="M314.23,231.6c-1-1-3.29-1.59-4.64-1.79-1-.14-3-.41-3.7.62-.07.11,0,.29.12.36,1,.72,2.52.29,3.67.33A30.24,30.24,0,0,1,314,232,.24.24,0,0,0,314.23,231.6Z" style="fill:#e0e0e0"></path><path d="M304.89,230.51h0l-.15,0a.77.77,0,0,0,.31-.28.51.51,0,0,0,.49.06c2.7-1.28,3.62-6,3.11-8.67,0-.09-.27-.32-.31-.15a24.17,24.17,0,0,1-1.56,4.67c-.47,1-1.39,2.13-1.81,3.19a5.06,5.06,0,0,0-.24-.46,7,7,0,0,0-1.42-1.78c-1.4-1.24-3.51-2.84-5.5-2.85-.22,0,0,.3.06.35a14.59,14.59,0,0,1,3.58,2.81,6.47,6.47,0,0,1,1.79,2.72.63.63,0,0,0,.44.5,17.07,17.07,0,0,0-3.4,1.33,5.81,5.81,0,0,0-2.88,2.86c-.07.21.37.53.5.32.34-.52,1.16-.83,1.68-1.2a11.82,11.82,0,0,1,2.35-1.26,12,12,0,0,1,1.71-.6l.59-.17h0l.18,0a11.21,11.21,0,0,0,.8,1.87,12.47,12.47,0,0,1,1.16,4.75c0,.16.34.43.43.21a8.82,8.82,0,0,0,.14-5.14C306.78,232.66,306.34,230,304.89,230.51Z" style="fill:#e0e0e0"></path><path d="M307.21,230.89a2.11,2.11,0,1,1-1.47-2.59A2.11,2.11,0,0,1,307.21,230.89Z" style="fill:#92E3A9"></path><path d="M304.31,231.31a2.2,2.2,0,0,1,.2-3,2.11,2.11,0,1,0,2.11,3.53A2.22,2.22,0,0,1,304.31,231.31Z" style="opacity:0.05"></path></g></g><g id="freepik--Character--inject-1--inject-8"><g id="freepik--character--inject-1--inject-8"><path d="M204.39,284.68c-11.59-2.61-35.93-6.82-35.93-6.82l3.31-16.08c-13.73,4.54-36,1.91-45.69-5.8l-1.86,7.19s-8,9.31-11.38,14.49c-2.67,4.14-9.74,15.36-6,31.36,2.17,9.39,10.42,30.6,10.42,30.6l-17-7.68s-4-.15-7.62,5.46,0,14.06,0,14.06,20.67,16.23,36.64,25.84c15.8,9.51,24.08,10.33,34.4,5.58,5.92-2.73,6.3-12.82,3.25-23.36s-14.8-43.93-14.8-43.93l27,2-4.57,13.76-4,16.91s3.23,9.06,17.66,6c0,0,23.22-38.22,26.23-48.57S215.61,287.19,204.39,284.68Z" style="fill:#92E3A9"></path><path d="M204.39,284.68c-11.59-2.61-35.93-6.82-35.93-6.82l3.31-16.08c-13.73,4.54-36,1.91-45.69-5.8l-1.86,7.19s-8,9.31-11.38,14.49c-2.67,4.14-9.74,15.36-6,31.36,2.17,9.39,10.42,30.6,10.42,30.6l-17-7.68s-4-.15-7.62,5.46,0,14.06,0,14.06,20.67,16.23,36.64,25.84c15.8,9.51,24.08,10.33,34.4,5.58,5.92-2.73,6.3-12.82,3.25-23.36s-14.8-43.93-14.8-43.93l27,2-4.57,13.76-4,16.91s3.23,9.06,17.66,6c0,0,23.22-38.22,26.23-48.57S215.61,287.19,204.39,284.68Z" style="opacity:0.25"></path><path d="M169.63,205.55c4.23,1,8.35,3.19,11.31,12.06s8.64,41.12,8.64,41.12l25.24,45.77-10.44,5.94-25.89-35.11a35.57,35.57,0,0,1-6.33-14.41l-5.45-28.14,2.92-27.23" style="fill:#f28f8f"></path><path d="M169.14,205.25a13.77,13.77,0,0,1,8.31,4.55c3.35,4,4.49,9.61,5.88,15.08S186.47,239,186.47,239s-6,6.92-21.12,4.75c-.35-.51-2.42-32.73-2.42-32.73Z" style="fill:#e0e0e0"></path><path d="M126.08,256s17.42,13.54,45.71,7.71a36.36,36.36,0,0,1-2.36,9.53s-28.48,6-45.21-10.05A21.16,21.16,0,0,1,126.08,256Z" style="fill:#92E3A9"></path><path d="M126.08,256s17.42,13.54,45.71,7.71a36.36,36.36,0,0,1-2.36,9.53s-28.48,6-45.21-10.05A21.16,21.16,0,0,1,126.08,256Z" style="opacity:0.35000000000000003"></path><path d="M213,386.05c-.52,1.1-6.19,4.3-13.85,3.78a32,32,0,0,1-15.84-5.53c-2.91-1.94-6-2.3-9.74-2.51a20.47,20.47,0,0,1-6.81-1.74,10.22,10.22,0,0,0,1.08-2.31,16.8,16.8,0,0,0,.78-3.81l44.59,8.41h0A5,5,0,0,1,213,386.05Z" style="fill:#263238"></path><path d="M213.24,382.34h0a4.76,4.76,0,0,1-2,2.36c-3,1.74-10.73,3.61-18.88,1.31-4.44-1.27-9.37-6-15.2-6.46a37.44,37.44,0,0,1-9.26-1.82,16.8,16.8,0,0,0,.78-3.81,39.61,39.61,0,0,0-1.75-14.41c-.05-.2-.12-.41-.18-.63.21-.79.42-1.52.61-2.19,1.18-4.41,3.48-19.62,5-24.77,1.42-4.93,3-3.44,3.12-3.29l-.9,2.71c-.06,4.12,16,11.37,21.28,10.12l1.32-2.26c1.63,1.44-2.71,7-6.07,13.27s-3.49,8.74-2.86,9.78c1.6,2.61,3.64,4.5,7.32,6.48,2.51,1.34,5,2.39,7.55,3.55s6.12,1.91,8.18,3.29A5.76,5.76,0,0,1,213.24,382.34Z" style="fill:#37474f"></path><path d="M152.1,315.59l-2.25-4.21s7.54-6.62,10.14-13.83c0,0-1.09,9.07-5.07,14.64l13.54,4.38Z" style="opacity:0.15"></path><path d="M118.21,352.71C111,343.42,95.5,334.23,95.44,334.2c3-2.57,4.83-2.26,4.83-2.26l17,7.68s10.25,22.18,18.59,25.55A39.56,39.56,0,0,1,118.21,352.71Z" style="opacity:0.15"></path><path d="M179.08,317.58c0-1.93,4-10.17,11.12-13.08a20.76,20.76,0,0,0-14.53,12.83Z" style="opacity:0.15"></path><path d="M88.36,371.87c-2.63,1.41-8.22,1-12.76-2s-5.61-9.73-4-14.64c2-5.95,5.5-8.86,6.8-12.42s1.25-8.79,2.91-11.88,5.35-4.94,7.45-5.45a5.79,5.79,0,0,1,4.93,1.17L95,327.73Z" style="fill:#263238"></path><path d="M107.85,334.61c-2.91-1.26-5.88-1.9-11.65-6.27-8.15-4.79-13.51,4.44-13.74,11s-7.2,10.76-8.66,17.44c-1,4.69-.31,11,6.12,14,5.63,2.66,9.21,2.6,11.66-.29,1.65-2,.44-10.39.44-10.39l4-5.32s10.79,8.6,12.64,10.32,2.36,1.35,3.18.58l-1.52-1.14s-6.09-14.42,6.88-25l-.6-1.56C116.1,337.09,110.76,335.87,107.85,334.61Z" style="fill:#37474f"></path><path d="M96,354.85s-4.45-4.23-5.47-9.49c0,0-.13,4.54,1.36,7.11,2,3.42,3.1,3.72,3.1,3.72Z" style="fill:#263238"></path><g id="freepik--character--inject-1--inject-8"><ellipse cx="150.44" cy="153.33" rx="24.57" ry="20.19" transform="translate(-45.42 65.11) rotate(-21.3)" style="fill:#37474f"></ellipse><ellipse cx="155.69" cy="165.47" rx="43.54" ry="26.82" transform="translate(-53.7 77.29) rotate(-23.91)" style="fill:#455a64"></ellipse><path d="M173.6,246.47c0,2.29-1.8,11.73-1.83,15.31-7.45,4.88-37.68,2.7-45.69-5.8l-2.45-18.35s13.13-14.76,4.71-36.41l13.48.47,19.68,1.73a32.47,32.47,0,0,1,6.93,1.82,63.94,63.94,0,0,1,10.81,18C181.26,228.29,183.75,235.69,173.6,246.47Z" style="fill:#e6e6e6"></path><path d="M129,201.84c-5.21-.35-11,1.63-14.59,8.7-5.09,10.05-13.34,54.9-11.35,59.27l19.42-9.39,5.1-26.36C133.64,225.49,134.33,205.68,129,201.84Z" style="fill:#ffa8a7"></path><path d="M130.22,201.18s-7.71-.74-11.37,2.48c-4.73,4.14-5.63,6.25-8.08,15.71-2.28,8.83-3.37,14.23-3.37,14.23s2,3,8.9,5.18,11.3,1,11.3,1l1.61-6.17s4.18-11,4.43-20.53S130.22,201.18,130.22,201.18Z" style="fill:#e0e0e0"></path><path d="M149.85,228.62s-1.09-18.77-10.92-27a14.24,14.24,0,0,0-7.23-.37c8.14,6.94,10.46,17.29,11.66,27.92Z" style="fill:#92E3A9"></path><path d="M149.85,228.62s-1.09-18.77-10.92-27a14.24,14.24,0,0,0-7.23-.37c8.14,6.94,10.46,17.29,11.66,27.92Z" style="opacity:0.35000000000000003"></path><path d="M180.8,229.86s-.51-15-11.17-24.31c0,0-4.42-3-8.52-2.19,6.42,3.54,12.9,15,13.6,26.44Z" style="fill:#92E3A9"></path><path d="M180.8,229.86s-.51-15-11.17-24.31c0,0-4.42-3-8.52-2.19,6.42,3.54,12.9,15,13.6,26.44Z" style="opacity:0.35000000000000003"></path><path d="M159,192.33l-10.21-1.2c-13.32-1.56-22.35-14.75-19.16-27.22l.59-3.27c7.2-10.87,23.36-19.4,29.92-22.24h0A29.42,29.42,0,0,1,185.9,171h0A24.28,24.28,0,0,1,159,192.33Z" style="fill:#263238"></path><path d="M177.39,153.33c2.88,2.18,5.78,10.39,3.5,26.62-1.94,13.76-6.81,16.64-9.17,17.36s-6.61-.39-10.74-1.58L160,204s5,7.44,4.21,11.19-8.95,3.71-13.95-.63-8.75-12.11-8.75-12.11l2.32-19s-2.75,2.11-6.52-2.05c-3.12-3.44-3.68-8.69-.66-11.11a6.07,6.07,0,0,1,9.38,3s6.69,1,16.2-2.83A25.3,25.3,0,0,0,177.39,153.33Z" style="fill:#ffa8a7"></path><path d="M165.9,174.68a1.75,1.75,0,1,1-1.62-1.93A1.78,1.78,0,0,1,165.9,174.68Z" style="fill:#263238"></path><g style="opacity:0.5;mix-blend-mode:multiply"><path d="M165,186.43l3.88,1.75a2.08,2.08,0,0,1-2.79,1.14A2.22,2.22,0,0,1,165,186.43Z" style="fill:#f28f8f"></path></g><path d="M180.74,171l-3.22-2.84a2.06,2.06,0,0,1,3-.26A2.26,2.26,0,0,1,180.74,171Z" style="fill:#263238"></path><path d="M179.45,175a1.75,1.75,0,1,1-1.62-1.93A1.77,1.77,0,0,1,179.45,175Z" style="fill:#263238"></path><g style="opacity:0.5;mix-blend-mode:multiply"><polygon points="171.39 173.05 170.44 183.52 176.13 182.46 171.39 173.05" style="fill:#f28f8f"></polygon></g><g style="opacity:0.5;mix-blend-mode:multiply"><path d="M161,195.73c-4.37-1.1-13.19-4.79-14.18-8.57a9.36,9.36,0,0,0,2.65,5c2.46,2.66,11.21,6.35,11.21,6.35Z" style="fill:#f28f8f"></path></g><path d="M177.52,146.86c-21.83-7.33-49.22,17.19-48.35,29.52C124.31,171,128,154,128,154c5.28-5.91,24.16-17.43,37.78-17.45C171.76,138.82,175.72,142.23,177.52,146.86Z" style="fill:#455a64"></path><path d="M180.65,301.47l3.84-2.27a32.68,32.68,0,0,1-3.56-13.12c-.52-8.12,3.37-18,7.42-19,4.31-1,8.11,3.42,8.15,3.46l3.43-2.85c-.23-.27-5.56-6.55-12.56-5-7.57,1.72-11.44,14.9-10.88,23.6A36.6,36.6,0,0,0,180.65,301.47Z" style="fill:#37474f"></path><path d="M181.66,291.21a30.37,30.37,0,0,0,2.83,8l-3.84,2.27A28.9,28.9,0,0,1,179,297.8C179.72,296,180.65,293.67,181.66,291.21Z" style="fill:#263238"></path><path d="M195.21,264a17.4,17.4,0,0,1,4.72,3.74l-3.43,2.85a12.32,12.32,0,0,0-4.57-3.17A14,14,0,0,1,195.21,264Z" style="fill:#263238"></path><path d="M179.66,303.93h0l14.66-34.34h0c1.17-2.74,4-4.9,8.44-5.89,9.55-2.17,22.7,1.91,29.37,9.1,3.07,3.32,4.2,6.72,3.61,9.63l0,0-7.34,36.61h0c-.79,4-4.37,7.28-10.46,8.66-11.25,2.55-26.73-2.25-34.57-10.72C179.14,312.41,178,307.7,179.66,303.93Z" style="fill:#37474f"></path><path d="M201.73,279.67c5,5.44,15,8.53,22.21,6.89s9-7.38,4-12.82-15-8.52-22.22-6.89S196.69,274.24,201.73,279.67Z" style="opacity:0.1"></path><path d="M215.58,325.85a12,12,0,0,1-.32-14.38s-4.13,3.85-3.35,8.46C212.73,324.7,215.58,325.85,215.58,325.85Z" style="opacity:0.2"></path><path d="M197.51,280.63c6.65,7.2,19.8,11.28,29.37,9.11s11.92-9.76,5.26-17-19.82-11.27-29.37-9.1S190.84,273.44,197.51,280.63Zm8.19-13.78c7.24-1.63,17.17,1.45,22.22,6.89s3.24,11.18-4,12.82-17.17-1.45-22.21-6.89S198.47,268.49,205.7,266.85Z" style="fill:#455a64"></path><path d="M218.45,309s2.31-1.27,12.11-1.35c3,0,7.51.21,9.29,0s2.68-2.22,4.41-3.64a10.28,10.28,0,0,1,5.86-2.18l.75,19.79a10.44,10.44,0,0,1-6.35-1.64c-3.38-1.94-4.63-2.75-6.08-2.32a21,21,0,0,0-4.49,2.21c-4.38,2.95-10.49,6.6-16,7.85C211.58,324.52,210.88,312.49,218.45,309Z" style="fill:#455a64"></path><path d="M245.62,318.6a13,13,0,0,1,.31-14c2.82-3.82,7.25-3.72,9.91.22a13,13,0,0,1-.31,14C252.7,322.64,248.27,322.54,245.62,318.6Z" style="fill:#37474f"></path><path d="M213.15,316.4c-.72,4.47,1,9.43,4.81,11.31,5.5-1.24,11.6-4.9,16-7.85a20.35,20.35,0,0,1,4.49-2.21c1.45-.43,2.71.37,6.08,2.32a10.59,10.59,0,0,0,6.29,1.64,6,6,0,0,1-5.19-3,11.57,11.57,0,0,1-1.78-4.85,17.12,17.12,0,0,1-3.66.26c-3.38,0-6.53,2.23-10.81,4.4s-9,4.76-12.56,3.46A5.12,5.12,0,0,1,213.15,316.4Z" style="opacity:0.1"></path><path d="M250.12,306.55a1.86,1.86,0,0,1,0-2,.81.81,0,0,1,1.41,0,1.86,1.86,0,0,1,0,2A.81.81,0,0,1,250.12,306.55Z" style="fill:#263238"></path><path d="M250.09,310.65a1.86,1.86,0,0,1,0-2,.8.8,0,0,1,1.4,0,1.84,1.84,0,0,1,0,2A.81.81,0,0,1,250.09,310.65Z" style="fill:#263238"></path><path d="M250.07,314.75a1.84,1.84,0,0,1,0-2,.81.81,0,0,1,1.41,0,1.86,1.86,0,0,1-.05,2A.8.8,0,0,1,250.07,314.75Z" style="fill:#263238"></path><path d="M250,318.85a1.84,1.84,0,0,1,0-2,.81.81,0,0,1,1.41,0,1.88,1.88,0,0,1-.05,2A.8.8,0,0,1,250,318.85Z" style="fill:#263238"></path><path d="M247,308.46a1.84,1.84,0,0,1,0-2,.81.81,0,0,1,1.41,0,1.86,1.86,0,0,1,0,2A.8.8,0,0,1,247,308.46Z" style="fill:#263238"></path><path d="M253.19,308.67a1.86,1.86,0,0,1,.05-2,.8.8,0,0,1,1.4,0,1.84,1.84,0,0,1,0,2A.81.81,0,0,1,253.19,308.67Z" style="fill:#263238"></path><path d="M247,312.61a1.84,1.84,0,0,1,0-2,.81.81,0,0,1,1.41,0,1.86,1.86,0,0,1,0,2A.8.8,0,0,1,247,312.61Z" style="fill:#263238"></path><path d="M253.25,312.82a1.86,1.86,0,0,1,.05-2,.8.8,0,0,1,1.4,0,1.86,1.86,0,0,1,0,2A.81.81,0,0,1,253.25,312.82Z" style="fill:#263238"></path><path d="M247.08,316.76a1.86,1.86,0,0,1,0-2,.81.81,0,0,1,1.41,0,1.86,1.86,0,0,1,0,2A.81.81,0,0,1,247.08,316.76Z" style="fill:#263238"></path><path d="M253.31,317a1.88,1.88,0,0,1,.05-2,.8.8,0,0,1,1.4,0,1.84,1.84,0,0,1,0,2A.81.81,0,0,1,253.31,317Z" style="fill:#263238"></path><path d="M254.2,312.51h.08a14.73,14.73,0,0,1,1.77.17.66.66,0,0,0,.72-.51.62.62,0,0,0-.51-.72,15.36,15.36,0,0,0-1.94-.19.62.62,0,0,0-.12,1.24Z" style="fill:#92E3A9"></path><path d="M271.15,367.67l-.3-3.81a.63.63,0,0,1,.58-.68.64.64,0,0,1,.67.58l.3,3.81a.64.64,0,0,1-.58.68h-.14A.62.62,0,0,1,271.15,367.67Zm-.8-10.17-.29-3.81a.62.62,0,1,1,1.24-.1l.3,3.81a.61.61,0,0,1-.57.67h-.15A.65.65,0,0,1,270.35,357.5Zm-.79-10.17-.29-3.81a.63.63,0,0,1,.57-.68.64.64,0,0,1,.68.58l.29,3.81a.61.61,0,0,1-.57.67.75.75,0,0,1-.15,0A.64.64,0,0,1,269.56,347.33Zm-.78-10.18-.18-2.4c0-.48-.08-.94-.12-1.39a.62.62,0,1,1,1.24-.13c0,.47.09.94.12,1.43l.19,2.4a.63.63,0,0,1-.58.67h-.14A.64.64,0,0,1,268.78,337.15Zm-1.25-10a36.43,36.43,0,0,0-1-3.62.62.62,0,1,1,1.18-.39,35.68,35.68,0,0,1,1,3.75.63.63,0,0,1-.48.74.55.55,0,0,1-.22,0A.64.64,0,0,1,267.53,327.13Zm-3.65-9.19a14,14,0,0,0-2.42-2.73.62.62,0,0,1,.81-.95,15.25,15.25,0,0,1,2.64,3,.62.62,0,0,1-.16.87.62.62,0,0,1-.45.1A.6.6,0,0,1,263.88,317.94Z" style="fill:#92E3A9"></path><path d="M272.33,376.46h.14a.62.62,0,0,0,.57-.67l-.14-1.86a.63.63,0,1,0-1.25.09l.15,1.86A.62.62,0,0,0,272.33,376.46Z" style="fill:#92E3A9"></path><path d="M247.32,312.3h.08a12.78,12.78,0,0,1,1.77.18.63.63,0,0,0,.72-.51.62.62,0,0,0-.51-.72,13.56,13.56,0,0,0-1.94-.2.63.63,0,0,0-.12,1.25Z" style="fill:#92E3A9"></path><path d="M264.27,367.46l-.3-3.82a.63.63,0,0,1,.58-.67.62.62,0,0,1,.67.57l.3,3.82a.63.63,0,0,1-.58.67h-.14A.65.65,0,0,1,264.27,367.46Zm-.8-10.18-.29-3.81a.62.62,0,0,1,.57-.67.61.61,0,0,1,.67.57l.3,3.82a.62.62,0,0,1-.57.67H264A.63.63,0,0,1,263.47,357.28Zm-.78-10.17-.3-3.81a.63.63,0,0,1,.58-.67.62.62,0,0,1,.67.57l.29,3.82a.62.62,0,0,1-.57.67h-.14A.61.61,0,0,1,262.69,347.11Zm-.79-10.17-.18-2.41-.12-1.39a.62.62,0,1,1,1.24-.12c.05.46.09.94.13,1.42l.18,2.41a.63.63,0,0,1-.58.67h-.14A.63.63,0,0,1,261.9,336.94Zm-1.25-10a35.91,35.91,0,0,0-1-3.63.62.62,0,0,1,1.18-.39,35.68,35.68,0,0,1,1,3.75.64.64,0,0,1-.48.75.81.81,0,0,1-.22,0A.62.62,0,0,1,260.65,326.92Zm-3.65-9.2a13.35,13.35,0,0,0-2.42-2.72.63.63,0,0,1-.07-.88.61.61,0,0,1,.88-.07,14.4,14.4,0,0,1,2.64,3,.62.62,0,0,1-.16.87.64.64,0,0,1-.45.1A.67.67,0,0,1,257,317.72Z" style="fill:#92E3A9"></path><path d="M265.45,376.25h.14a.62.62,0,0,0,.58-.67l-.15-1.86a.63.63,0,0,0-1.25.1l.15,1.86A.62.62,0,0,0,265.45,376.25Z" style="fill:#92E3A9"></path><path d="M249.41,317.16a.62.62,0,0,0,.44-1.14,5.32,5.32,0,0,0-2-.86.63.63,0,0,0-.7.54.63.63,0,0,0,.53.7,4.59,4.59,0,0,1,1.44.66A.49.49,0,0,0,249.41,317.16Z" style="fill:#92E3A9"></path><path d="M258.91,370.15l-.27-3.47a.63.63,0,0,1,1.25-.1l.27,3.47a.63.63,0,0,1-.58.67h-.14A.62.62,0,0,1,258.91,370.15Zm-.72-9.25-.27-3.46a.62.62,0,1,1,1.24-.1l.27,3.47a.62.62,0,0,1-.57.67h-.14A.62.62,0,0,1,258.19,360.9Zm-.72-9.24-.27-3.46a.61.61,0,0,1,.58-.67.62.62,0,0,1,.67.57l.27,3.47a.63.63,0,0,1-.58.67H258A.62.62,0,0,1,257.47,351.66Zm-.71-9.24-.27-3.46a.63.63,0,0,1,1.25-.1l.26,3.47a.62.62,0,0,1-.57.67h-.14A.62.62,0,0,1,256.76,342.42Zm-.79-9.2c-.15-1.18-.33-2.32-.53-3.39a.63.63,0,0,1,1.23-.23c.21,1.09.39,2.26.54,3.47a.62.62,0,0,1-.54.69h-.17A.63.63,0,0,1,256,333.22Zm-2-8.89a22.91,22.91,0,0,0-1.35-3.1.62.62,0,0,1,1.1-.58,24.73,24.73,0,0,1,1.43,3.26.64.64,0,0,1-.38.8.66.66,0,0,1-.31,0A.62.62,0,0,1,254,324.33Z" style="fill:#92E3A9"></path><path d="M260,378.36h.15a.62.62,0,0,0,.57-.67l-.15-1.86a.62.62,0,0,0-.67-.58.63.63,0,0,0-.57.68l.14,1.86A.65.65,0,0,0,260,378.36Z" style="fill:#92E3A9"></path><g style="opacity:0.8"><path d="M254.2,312.51h.08a14.73,14.73,0,0,1,1.77.17.66.66,0,0,0,.72-.51.62.62,0,0,0-.51-.72,15.36,15.36,0,0,0-1.94-.19.62.62,0,0,0-.12,1.24Z" style="fill:#fff"></path><path d="M271.15,367.67l-.3-3.81a.63.63,0,0,1,.58-.68.64.64,0,0,1,.67.58l.3,3.81a.64.64,0,0,1-.58.68h-.14A.62.62,0,0,1,271.15,367.67Zm-.8-10.17-.29-3.81a.62.62,0,1,1,1.24-.1l.3,3.81a.61.61,0,0,1-.57.67h-.15A.65.65,0,0,1,270.35,357.5Zm-.79-10.17-.29-3.81a.63.63,0,0,1,.57-.68.64.64,0,0,1,.68.58l.29,3.81a.61.61,0,0,1-.57.67.75.75,0,0,1-.15,0A.64.64,0,0,1,269.56,347.33Zm-.78-10.18-.18-2.4c0-.48-.08-.94-.12-1.39a.62.62,0,1,1,1.24-.13c0,.47.09.94.12,1.43l.19,2.4a.63.63,0,0,1-.58.67h-.14A.64.64,0,0,1,268.78,337.15Zm-1.25-10a36.43,36.43,0,0,0-1-3.62.62.62,0,1,1,1.18-.39,35.68,35.68,0,0,1,1,3.75.63.63,0,0,1-.48.74.55.55,0,0,1-.22,0A.64.64,0,0,1,267.53,327.13Zm-3.65-9.19a14,14,0,0,0-2.42-2.73.62.62,0,0,1,.81-.95,15.25,15.25,0,0,1,2.64,3,.62.62,0,0,1-.16.87.62.62,0,0,1-.45.1A.6.6,0,0,1,263.88,317.94Z" style="fill:#fff"></path><path d="M272.33,376.46h.14a.62.62,0,0,0,.57-.67l-.14-1.86a.63.63,0,1,0-1.25.09l.15,1.86A.62.62,0,0,0,272.33,376.46Z" style="fill:#fff"></path><path d="M247.32,312.3h.08a12.78,12.78,0,0,1,1.77.18.63.63,0,0,0,.72-.51.62.62,0,0,0-.51-.72,13.56,13.56,0,0,0-1.94-.2.63.63,0,0,0-.12,1.25Z" style="fill:#fff"></path><path d="M264.27,367.46l-.3-3.82a.63.63,0,0,1,.58-.67.62.62,0,0,1,.67.57l.3,3.82a.63.63,0,0,1-.58.67h-.14A.65.65,0,0,1,264.27,367.46Zm-.8-10.18-.29-3.81a.62.62,0,0,1,.57-.67.61.61,0,0,1,.67.57l.3,3.82a.62.62,0,0,1-.57.67H264A.63.63,0,0,1,263.47,357.28Zm-.78-10.17-.3-3.81a.63.63,0,0,1,.58-.67.62.62,0,0,1,.67.57l.29,3.82a.62.62,0,0,1-.57.67h-.14A.61.61,0,0,1,262.69,347.11Zm-.79-10.17-.18-2.41-.12-1.39a.62.62,0,1,1,1.24-.12c.05.46.09.94.13,1.42l.18,2.41a.63.63,0,0,1-.58.67h-.14A.63.63,0,0,1,261.9,336.94Zm-1.25-10a35.91,35.91,0,0,0-1-3.63.62.62,0,0,1,1.18-.39,35.68,35.68,0,0,1,1,3.75.64.64,0,0,1-.48.75.81.81,0,0,1-.22,0A.62.62,0,0,1,260.65,326.92Zm-3.65-9.2a13.35,13.35,0,0,0-2.42-2.72.63.63,0,0,1-.07-.88.61.61,0,0,1,.88-.07,14.4,14.4,0,0,1,2.64,3,.62.62,0,0,1-.16.87.64.64,0,0,1-.45.1A.67.67,0,0,1,257,317.72Z" style="fill:#fff"></path><path d="M265.45,376.25h.14a.62.62,0,0,0,.58-.67l-.15-1.86a.63.63,0,0,0-1.25.1l.15,1.86A.62.62,0,0,0,265.45,376.25Z" style="fill:#fff"></path><path d="M249.41,317.16a.62.62,0,0,0,.44-1.14,5.32,5.32,0,0,0-2-.86.63.63,0,0,0-.7.54.63.63,0,0,0,.53.7,4.59,4.59,0,0,1,1.44.66A.49.49,0,0,0,249.41,317.16Z" style="fill:#fff"></path><path d="M258.91,370.15l-.27-3.47a.63.63,0,0,1,1.25-.1l.27,3.47a.63.63,0,0,1-.58.67h-.14A.62.62,0,0,1,258.91,370.15Zm-.72-9.25-.27-3.46a.62.62,0,1,1,1.24-.1l.27,3.47a.62.62,0,0,1-.57.67h-.14A.62.62,0,0,1,258.19,360.9Zm-.72-9.24-.27-3.46a.61.61,0,0,1,.58-.67.62.62,0,0,1,.67.57l.27,3.47a.63.63,0,0,1-.58.67H258A.62.62,0,0,1,257.47,351.66Zm-.71-9.24-.27-3.46a.63.63,0,0,1,1.25-.1l.26,3.47a.62.62,0,0,1-.57.67h-.14A.62.62,0,0,1,256.76,342.42Zm-.79-9.2c-.15-1.18-.33-2.32-.53-3.39a.63.63,0,0,1,1.23-.23c.21,1.09.39,2.26.54,3.47a.62.62,0,0,1-.54.69h-.17A.63.63,0,0,1,256,333.22Zm-2-8.89a22.91,22.91,0,0,0-1.35-3.1.62.62,0,0,1,1.1-.58,24.73,24.73,0,0,1,1.43,3.26.64.64,0,0,1-.38.8.66.66,0,0,1-.31,0A.62.62,0,0,1,254,324.33Z" style="fill:#fff"></path><path d="M260,378.36h.15a.62.62,0,0,0,.57-.67l-.15-1.86a.62.62,0,0,0-.67-.58.63.63,0,0,0-.57.68l.14,1.86A.65.65,0,0,0,260,378.36Z" style="fill:#fff"></path></g><path d="M122.69,258.59s29.64,11.36,36.09,13.09c5.42,1.45,9.65,1.93,14.11-.42s7.24-2,7.24-2a35.58,35.58,0,0,0-2.53,7.21c1.41,2.27,4.18,1,4.18,1A23,23,0,0,1,183,273.7c4.3,2.38,6.37,4.84,5.11,7.7-1,2.21-3.47,10.34-10.88,10.44-6,.08-16.36-5.12-23.46-8.18s-49.46-7.41-50.69-13.85c0,0,1.29-7.51,7.78-10.05A23.4,23.4,0,0,1,122.69,258.59Z" style="fill:#ffa8a7"></path></g><path d="M133.64,260.49s4.43-11.76,5.39-21.86,1.23-11.44,14.34-11.63,23.82-1.48,26.95-.74,1.57,12.53-2.7,22a107.9,107.9,0,0,0-5.83,15.44S151.71,269.76,133.64,260.49Z" style="fill:#92E3A9"></path><path d="M133.64,260.49s4.43-11.76,5.39-21.86,1.23-11.44,14.34-11.63,23.82-1.48,26.95-.74,1.57,12.53-2.7,22a107.9,107.9,0,0,0-5.83,15.44S151.71,269.76,133.64,260.49Z" style="opacity:0.25"></path><path d="M149.85,234.49l26.92-.89s-1,12.76-3.87,14.87-20.6,2.31-23.79.91C145.33,247.72,149.85,234.49,149.85,234.49Z" style="fill:#92E3A9"></path><path d="M144.14,231.64c3.71-1.24,7.52-4.11,8.9-7.85a20.18,20.18,0,0,0,.89-2.93,18.49,18.49,0,0,0-.83-9.35,25,25,0,0,0-3.52-7.47c-1.44-1.95-3.07-3.76-4.43-5.76a18.81,18.81,0,0,1-1.59-2.81c-.89-1.89-.33-7.05-.33-7.05a3.31,3.31,0,0,0-.44-1.67,7.71,7.71,0,0,0-4.28-2.49,3.74,3.74,0,0,0-3.63,1.36,25,25,0,0,0-6.1,8.83,14.21,14.21,0,0,0-.58,8.94,16.39,16.39,0,0,0,2.3,4.85c2.69,4,3.85,8.74,1.86,13.31-.49,1.12-1.11,2.18-1.52,3.33a5.32,5.32,0,0,0-.18,3.6c.6,1.67,2.33,2.67,4,3.22A15.29,15.29,0,0,0,144.14,231.64Z" style="fill:#263238"></path></g></g></svg>